<svg xmlns="http://www.w3.org/2000/svg" xmlns:xlink="http://www.w3.org/1999/xlink" id="Layer_1" x="0" y="0" version="1.1" viewBox="-199 -150 800 800" xml:space="preserve" style="enable-background:new -199 -150 800 800"><style type="text/css">.st0{fill:#f83}.st1{fill:#f7f7f7}.st2{fill:#de6525}.st3{fill:#ddd}</style><circle id="XMLID_1_" cx="201" cy="250" r="400" class="st0"/><path id="XMLID_2_" d="M366,475H36c-5.5,0-10-4.5-10-10V35c0-5.5,4.5-10,10-10h330c5.5,0,10,4.5,10,10v430	C376,470.5,371.5,475,366,475z" class="st1"/><path id="XMLID_3_" d="M76,475H36c-5.5,0-10-4.5-10-10V35c0-5.5,4.5-10,10-10h40V475z" class="st2"/><path id="XMLID_4_" d="M286,110H156c-5.5,0-10-4.5-10-10l0,0c0-5.5,4.5-10,10-10h130c5.5,0,10,4.5,10,10l0,0	C296,105.5,291.5,110,286,110z" class="st3"/><path id="XMLID_5_" d="M286,140H156c-5.5,0-10-4.5-10-10l0,0c0-5.5,4.5-10,10-10h130c5.5,0,10,4.5,10,10l0,0	C296,135.5,291.5,140,286,140z" class="st3"/><path id="XMLID_6_" d="M286,170h-80c-5.5,0-10-4.5-10-10l0,0c0-5.5,4.5-10,10-10h80c5.5,0,10,4.5,10,10l0,0	C296,165.5,291.5,170,286,170z" class="st3"/><path id="XMLID_7_" d="M253.6,205.4l34.8-21.2c1.6-1,3.6-1,5.2,0l34.8,21.2c3.3,2,7.6-0.4,7.6-4.3v-180c0-2.8-2.2-5-5-5	h-80c-2.8,0-5,2.2-5,5v180C246,205,250.3,207.4,253.6,205.4z" class="st2"/></svg>