<svg xmlns="http://www.w3.org/2000/svg" xmlns:xlink="http://www.w3.org/1999/xlink" id="Layer_1" x="0" y="0" version="1.1" viewBox="0 0 400 400" xml:space="preserve" style="enable-background:new 0 0 400 400"><style type="text/css">.st0,.st1{display:none;fill:#5f9c74}.st1{fill:#eee}.st2,.st3{stroke-miterlimit:10}.st2{display:none;fill:none;stroke:#eee;stroke-width:5.3741}.st3{fill:#c2d2bd;stroke:#858585;stroke-width:5}</style><circle id="XMLID_5_" cx="200" cy="200" r="200" class="st0"/><circle id="XMLID_9_" cx="200" cy="200" r="25" class="st1"/><ellipse id="XMLID_8_" cx="200" cy="200" class="st2" rx="150" ry="50" transform="matrix(0.866 -0.5 0.5 0.866 -73.2051 126.7949)"/><ellipse id="XMLID_7_" cx="200" cy="200" class="st2" rx="50" ry="150"/><ellipse id="XMLID_6_" cx="200" cy="200" class="st2" rx="150" ry="50" transform="matrix(-0.866 -0.5 0.5 -0.866 273.2051 473.2051)"/><path id="XMLID_12_" d="M200,100.5c-41.4,0-75,33.3-75,74.5s75,125.5,75,125.5s75-84.4,75-125.5S241.4,100.5,200,100.5z M200,205c-16.6,0-30-13.4-30-30s13.4-30,30-30s30,13.4,30,30S216.6,205,200,205z" class="st3"/></svg>