<svg xmlns="http://www.w3.org/2000/svg" xmlns:xlink="http://www.w3.org/1999/xlink" id="Layer_1" x="0" y="0" version="1.1" viewBox="0 0 300 300" xml:space="preserve" style="enable-background:new 0 0 300 300"><style type="text/css">.st0{fill:#fff;stroke:#fff;stroke-width:9.8592}.st1{fill:#f69}.st2{opacity:.8}.st2,.st3,.st4{fill:#f69}.st4{opacity:.8}</style><path id="XMLID_14_" d="M134.7,198.8L93.7,150l40.9-48.8c7.6-9.1,6.5-22.7-2.7-30.3c-9.1-7.6-22.7-6.5-30.3,2.7	l-52.2,62.2c-1.8,2.1-3.2,4.4-4.1,6.9c0,0.1,0,0.1-0.1,0.2c0,0.1-0.1,0.2-0.1,0.3c0,0.1-0.1,0.2-0.1,0.3c0,0.1,0,0.1-0.1,0.2	c0,0.1-0.1,0.3-0.1,0.4c0,0,0,0,0,0.1c-0.4,1.3-0.6,2.7-0.7,4c0,0,0,0,0,0c0,0.2,0,0.3,0,0.5c0,0,0,0.1,0,0.1c0,0.1,0,0.3,0,0.4	c0,0,0,0.1,0,0.1c0,0.1,0,0.2,0,0.3c0,0.1,0,0.1,0,0.2c0,0.1,0,0.2,0,0.3s0,0.2,0,0.3c0,0.1,0,0.1,0,0.2c0,0.1,0,0.2,0,0.3	c0,0,0,0.1,0,0.1c0,0.1,0,0.3,0,0.4c0,0,0,0.1,0,0.1c0,0.2,0,0.3,0,0.5c0,0,0,0,0,0c0.1,1.4,0.4,2.7,0.7,4c0,0,0,0,0,0.1	c0,0.1,0.1,0.3,0.1,0.4c0,0.1,0,0.1,0.1,0.2c0,0.1,0.1,0.2,0.1,0.3c0,0.1,0.1,0.2,0.1,0.3c0,0.1,0,0.1,0.1,0.2	c0.9,2.5,2.3,4.8,4.1,6.9l52.2,62.2c7.6,9.1,21.2,10.3,30.3,2.7C141.1,221.5,142.3,207.9,134.7,198.8z" class="st0"/><path d="M132,70.9c-9.1-7.6-22.7-6.5-30.3,2.7l-52.6,62.6c-7.6,9.1-6.5,22.7,2.7,30.3c9.1,7.6,22.7,6.5,30.3-2.7	l52.6-62.6C142.3,92.1,141.1,78.5,132,70.9z M59.7,157c-3.9-3.2-4.4-9-1.1-12.9c3.2-3.9,9-4.4,12.9-1.1c3.9,3.2,4.4,9,1.1,12.9	C69.4,159.7,63.6,160.3,59.7,157z M112.3,94.4c-3.9-3.2-4.4-9-1.1-12.9c3.2-3.9,9-4.4,12.9-1.1c3.9,3.2,4.4,9,1.1,12.9	S116.2,97.6,112.3,94.4z" class="st1"/><path d="M132,229.1c9.1-7.6,10.3-21.2,2.7-30.3l-52.6-62.6c-7.6-9.1-21.2-10.3-30.3-2.7s-10.3,21.2-2.7,30.3l52.6,62.6	C109.3,235.6,122.9,236.8,132,229.1z M59.7,143c3.9-3.2,9.6-2.7,12.9,1.1s2.7,9.6-1.1,12.9c-3.9,3.2-9.6,2.7-12.9-1.1	C55.4,152,55.9,146.2,59.7,143z M112.3,205.6c3.9-3.2,9.6-2.7,12.9,1.1s2.7,9.6-1.1,12.9c-3.9,3.2-9.6,2.7-12.9-1.1	C107.9,214.6,108.4,208.9,112.3,205.6z" class="st2"/><path id="XMLID_1_" d="M165.3,101.2l40.9,48.8l-40.9,48.8c-7.6,9.1-6.5,22.7,2.7,30.3c9.1,7.6,22.7,6.5,30.3-2.7	l52.2-62.2c1.8-2.1,3.2-4.4,4.1-6.9c0-0.1,0-0.1,0.1-0.2c0-0.1,0.1-0.2,0.1-0.3c0-0.1,0.1-0.2,0.1-0.3c0-0.1,0-0.1,0.1-0.2	c0-0.1,0.1-0.3,0.1-0.4c0,0,0,0,0-0.1c0.4-1.3,0.6-2.7,0.7-4c0,0,0,0,0,0c0-0.2,0-0.3,0-0.5c0,0,0-0.1,0-0.1c0-0.1,0-0.3,0-0.4	c0,0,0-0.1,0-0.1c0-0.1,0-0.2,0-0.3c0-0.1,0-0.1,0-0.2c0-0.1,0-0.2,0-0.3s0-0.2,0-0.3c0-0.1,0-0.1,0-0.2c0-0.1,0-0.2,0-0.3	c0,0,0-0.1,0-0.1c0-0.1,0-0.3,0-0.4c0,0,0-0.1,0-0.1c0-0.2,0-0.3,0-0.5c0,0,0,0,0,0c-0.1-1.4-0.4-2.7-0.7-4c0,0,0,0,0-0.1	c0-0.1-0.1-0.3-0.1-0.4c0-0.1,0-0.1-0.1-0.2c0-0.1-0.1-0.2-0.1-0.3c0-0.1-0.1-0.2-0.1-0.3c0-0.1,0-0.1-0.1-0.2	c-0.9-2.5-2.3-4.8-4.1-6.9l-52.2-62.2c-7.6-9.1-21.2-10.3-30.3-2.7C158.9,78.5,157.7,92.1,165.3,101.2z" class="st0"/><path d="M168,229.1c9.1,7.6,22.7,6.5,30.3-2.7l52.6-62.6c7.6-9.1,6.5-22.7-2.7-30.3c-9.1-7.6-22.7-6.5-30.3,2.7	l-52.6,62.6C157.7,207.9,158.9,221.5,168,229.1z M240.3,143c3.9,3.2,4.4,9,1.1,12.9s-9,4.4-12.9,1.1c-3.9-3.2-4.4-9-1.1-12.9	C230.6,140.3,236.4,139.7,240.3,143z M187.7,205.6c3.9,3.2,4.4,9,1.1,12.9s-9,4.4-12.9,1.1c-3.9-3.2-4.4-9-1.1-12.9	C178.1,202.9,183.8,202.4,187.7,205.6z" class="st3"/><path d="M168,70.9c-9.1,7.6-10.3,21.2-2.7,30.3l52.6,62.6c7.6,9.1,21.2,10.3,30.3,2.7c9.1-7.6,10.3-21.2,2.7-30.3	l-52.6-62.6C190.7,64.4,177.1,63.2,168,70.9z M240.3,157c-3.9,3.2-9.6,2.7-12.9-1.1c-3.2-3.9-2.7-9.6,1.1-12.9	c3.9-3.2,9.6-2.7,12.9,1.1S244.1,153.8,240.3,157z M187.7,94.4c-3.9,3.2-9.6,2.7-12.9-1.1c-3.2-3.9-2.7-9.6,1.1-12.9	c3.9-3.2,9.6-2.7,12.9,1.1S191.6,91.1,187.7,94.4z" class="st4"/></svg>