<svg xmlns="http://www.w3.org/2000/svg" xmlns:xlink="http://www.w3.org/1999/xlink" id="Layer_1" x="0" y="0" version="1.1" viewBox="0 0 400 400" xml:space="preserve" style="enable-background:new 0 0 400 400"><style type="text/css">.st0{fill:#333c4e}.st1{fill:#ecf0f1}.st2{fill:#86b8c6}.st3{fill:#f69}.st4{fill:#f7f7f7}</style><circle id="XMLID_7_" cx="200" cy="200" r="200" class="st0"/><path id="XMLID_1_" d="M257.1,186.9c0,48.5-1.6,69.6-72.8,69.6S75,235.4,75,186.9s19.8-69.6,91-69.6	S257.1,138.4,257.1,186.9z" class="st1"/><circle id="XMLID_3_" cx="143.2" cy="187" r="9.1" class="st2"/><circle id="XMLID_4_" cx="170.7" cy="189" r="7.2" class="st2"/><circle id="XMLID_5_" cx="196.5" cy="186.3" r="8.4" class="st2"/><path id="XMLID_2_" d="M325,213.5c0,39.9-32,65.3-81.4,65.3S189,266.3,189,226.4s17.5-61.1,66.9-61.1	S325,173.6,325,213.5z" class="st3"/><polygon id="XMLID_9_" points="152.3 254.4 120.6 278.8 109.4 243.2 115.9 218.4 140.6 211.7 158.8 229.6" class="st1"/><polygon id="XMLID_10_" points="304.6 251.2 305.8 282.8 274.2 269.4 264 251.2 274.2 233 294.5 233" class="st3"/><path id="XMLID_11_" d="M265.9,207c-3.7,0-6.9,1.8-8.9,4.5c-2-2.7-5.2-4.5-8.9-4.5c-6.1,0-11.1,4.9-11.1,11.1	c0,1.5,0.3,2.9,0.8,4.3l0,0c0.4,0.9,0.9,1.8,1.5,2.6l17.5,18.2c5.9-5.9,12.4-12.8,17.7-18.3c0.6-0.8,1.1-1.6,1.5-2.6l0,0	c0.5-1.3,0.8-2.7,0.8-4.3C276.9,211.9,272,207,265.9,207z" class="st4"/></svg>