<svg xmlns="http://www.w3.org/2000/svg" xmlns:xlink="http://www.w3.org/1999/xlink" id="Layer_1" x="0" y="0" version="1.1" viewBox="0 0 1280 900" xml:space="preserve" style="enable-background:new 0 0 1280 900"><style type="text/css">.st0{fill:url(#XMLID_46_)}.st1{opacity:.5}.st1,.st2{fill:#fff}.st5{fill:url(#XMLID_47_)}.st6{fill:#f7f7f7}.st7{fill:#fff;stroke:#fff;stroke-width:3.0398}.st8{fill:#ffbe41}.st9{opacity:.8;fill:#f0282a;enable-background:new}.st10{fill:#ab7cff}.st11{opacity:.8;fill:#00b4ff;enable-background:new}.st12{fill:none;stroke:#fff;stroke-width:.9832;stroke-miterlimit:10}.st13{fill:#00b4ff;enable-background:new}.st14{opacity:.2;clip-path:url(#XMLID_49_);fill:#444}.st15{fill:none;stroke:#fff;stroke-width:.8128;stroke-miterlimit:10}.st16{opacity:.2;clip-path:url(#XMLID_50_);fill:#444}.st17{fill:none;stroke:#fff;stroke-width:1.0968;stroke-miterlimit:10}.st18{fill:#f0282a;enable-background:new}.st19{opacity:.2;clip-path:url(#XMLID_70_);fill:#444}.st20{fill:none;stroke:#fff;stroke-width:1.3389;stroke-miterlimit:10}.st21{opacity:.2;clip-path:url(#XMLID_71_);fill:#444}.st22{opacity:.9;fill:#f7f7f7}.st23{opacity:.3;fill:#fff}.st24,.st25{opacity:.2;fill:#f7f7f7}.st25{opacity:.1}.st26,.st27{opacity:.6;fill:#444}.st27{opacity:.4}.st28{fill:#fff;stroke:#fff;stroke-width:2.8112}.st29{fill:none}.st30{font-family:&apos;RobotoSlab-Light&apos;}.st31{font-size:25px}.st32{font-size:20px}.st33{opacity:.8;fill:#ab7cff}.st34{font-size:18px}</style><radialGradient id="XMLID_46_" cx="-2380" cy="450" r="1081.665" gradientUnits="userSpaceOnUse"><stop offset="0" style="stop-color:#455164"/><stop offset="1" style="stop-color:#333c4e"/></radialGradient><rect id="XMLID_1_" width="3000" height="600" x="-3880" y="150" class="st0"/><path id="XMLID_3_" d="M-2628.2,585h-291c-24.9,0-45,20.1-45,45c0,24.9,20.1,45,45,45h291c24.9,0,45-20.1,45-45	C-2583.2,605.1-2603.3,585-2628.2,585z" class="st1"/><path id="XMLID_6_" d="M-2632.2,581h-291c-24.9,0-45,20.1-45,45c0,24.9,20.1,45,45,45h291c24.9,0,45-20.1,45-45	C-2587.2,601.1-2607.3,581-2632.2,581z" class="st2"/><path id="XMLID_2_" d="M-2703,549h-194.8c-16.6,0-30.1,13.4-30.1,30c0,16.6,13.5,30,30.1,30h194.8	c16.6,0,30.1-13.4,30.1-30C-2672.9,562.4-2686.4,549-2703,549z" class="st2"/><rect id="XMLID_4_" width="982" height="32" x="-2871" y="323" class="st29"/><text id="XMLID_5_" transform="matrix(1 0 0 1 -2768.418 353.4688)" style="display:none;fill:#fff;font-family:'RobotoSlab-Bold';font-size:40px">EXPLORE W3C DEVELOPER RESOURCES</text><rect id="XMLID_16_" width="1106" height="32" x="-2933" y="393" class="st29"/><text id="XMLID_7_" class="st30" transform="matrix(1 0 0 1 -2908.6035 423.4688)" style="display:none;fill:#fff;font-size:40px">learn, build and lead the web to its full potential together</text><radialGradient id="XMLID_47_" cx="640" cy="261.043" r="488.745" gradientUnits="userSpaceOnUse"><stop offset="0" style="stop-color:#455164"/><stop offset="1" style="stop-color:#333c4e"/></radialGradient><rect id="XMLID_48_" width="1280" height="522.1" class="st5"/><path id="XMLID_95_" d="M509.2,266H365.9c-12.2,0-22.2,9-22.2,20c0,11,9.9,20,22.2,20h143.2c12.2,0,22.2-9,22.2-20	C531.3,275,521.4,266,509.2,266z" class="st6"/><g id="XMLID_51_"><path id="XMLID_69_" d="M354.5,375.8l-3.4-19.4l18.4-6.7c3.4-1.3,5.2-5.1,4-8.5c-1.3-3.4-5.1-5.2-8.5-4l-23.5,8.6 c-0.8,0.3-1.5,0.7-2.2,1.2c0,0,0,0-0.1,0c0,0-0.1,0-0.1,0.1s-0.1,0-0.1,0.1s0,0-0.1,0c0,0-0.1,0.1-0.1,0.1c0,0,0,0,0,0 c-0.3,0.3-0.6,0.6-0.8,1l0,0c0,0.1,0,0.1-0.1,0.1l0,0c0,0,0,0.1-0.1,0.1l0,0c0,0,0,0.1,0,0.1c0,0,0,0,0,0.1s0,0.1,0,0.1 c0,0,0,0.1,0,0.1s0,0,0,0.1s0,0.1,0,0.1l0,0c0,0,0,0.1-0.1,0.1l0,0c0,0.1,0,0.1-0.1,0.1l0,0c-0.2,0.4-0.3,0.8-0.4,1.2c0,0,0,0,0,0 s0,0.1,0,0.1s0,0,0,0.1c0,0,0,0.1,0,0.1c0,0,0,0.1,0,0.1s0,0,0,0.1c-0.1,0.8-0.1,1.6,0,2.5l4.3,24.7c0.6,3.6,4.1,6,7.7,5.4 C352.7,382.8,355.1,379.4,354.5,375.8z" class="st7"/><path id="XMLID_65_" d="M373.5,341.2c-1.3-3.4-5.1-5.2-8.5-4l-23.7,8.6c-3.4,1.3-5.2,5.1-4,8.5c1.3,3.4,5.1,5.2,8.5,4 l23.7-8.6C372.9,348.4,374.7,344.6,373.5,341.2z M340.9,353c-0.5-1.5,0.2-3.1,1.7-3.6c1.5-0.5,3.1,0.2,3.6,1.7 c0.5,1.5-0.2,3.1-1.7,3.6C343.1,355.3,341.4,354.5,340.9,353z M364.6,344.4c-0.5-1.5,0.2-3.1,1.7-3.6c1.5-0.5,3.1,0.2,3.6,1.7 c0.5,1.5-0.2,3.1-1.7,3.6C366.7,346.7,365.1,345.9,364.6,344.4z" class="st8"/><path id="XMLID_61_" d="M349.1,383.4c3.6-0.6,6-4.1,5.4-7.7l-4.4-24.8c-0.6-3.6-4.1-6-7.7-5.4c-3.6,0.6-6,4.1-5.4,7.7 l4.4,24.8C342,381.7,345.5,384.1,349.1,383.4z M343,349.3c1.5-0.3,3,0.8,3.3,2.3c0.3,1.5-0.8,3-2.3,3.3c-1.5,0.3-3-0.8-3.3-2.3 C340.5,351,341.5,349.6,343,349.3z M347.4,374.1c1.5-0.3,3,0.8,3.3,2.3c0.3,1.5-0.8,3-2.3,3.3c-1.5,0.3-3-0.8-3.3-2.3 C344.9,375.8,345.9,374.4,347.4,374.1z" class="st9"/><path id="XMLID_60_" d="M377.7,354.4l3.4,19.3l-18.4,6.7c-3.4,1.3-5.2,5.1-4,8.5c1.3,3.4,5.1,5.2,8.5,4l23.5-8.6 c0.8-0.3,1.5-0.7,2.2-1.2c0,0,0,0,0.1,0c0,0,0.1,0,0.1-0.1s0.1,0,0.1-0.1s0,0,0.1,0c0,0,0.1-0.1,0.1-0.1c0,0,0,0,0,0 c0.3-0.3,0.6-0.6,0.8-1l0,0c0-0.1,0-0.1,0.1-0.1l0,0c0,0,0-0.1,0.1-0.1l0,0c0,0,0-0.1,0-0.1c0,0,0,0,0-0.1s0-0.1,0-0.1 c0,0,0-0.1,0-0.1s0,0,0-0.1c0,0,0-0.1,0-0.1l0,0c0,0,0-0.1,0.1-0.1l0,0c0-0.1,0-0.1,0.1-0.1l0,0c0.2-0.4,0.3-0.8,0.4-1.2 c0,0,0,0,0,0s0-0.1,0-0.1s0,0,0-0.1c0,0,0-0.1,0-0.1c0,0,0-0.1,0-0.1c0,0,0,0,0-0.1c0.1-0.8,0.1-1.6,0-2.5l-4.3-24.7 c-0.6-3.6-4.1-6-7.7-5.4C379.5,347.4,377.1,350.8,377.7,354.4z" class="st7"/><path id="XMLID_56_" d="M358.7,389c1.3,3.4,5.1,5.2,8.5,4l23.7-8.6c3.4-1.3,5.2-5.1,4-8.5c-1.3-3.4-5.1-5.2-8.5-4 l-23.7,8.6C359.2,381.7,357.4,385.6,358.7,389z M391.3,377.1c0.5,1.5-0.2,3.1-1.7,3.6c-1.5,0.5-3.1-0.2-3.6-1.7 c-0.5-1.5,0.2-3.1,1.7-3.6C389.1,374.9,390.7,375.7,391.3,377.1z M367.6,385.7c0.5,1.5-0.2,3.1-1.7,3.6c-1.5,0.5-3.1-0.2-3.6-1.7 c-0.5-1.5,0.2-3.1,1.7-3.6C365.4,383.5,367,384.3,367.6,385.7z" class="st10"/><path id="XMLID_52_" d="M383.1,346.7c-3.6,0.6-6,4.1-5.4,7.7l4.4,24.8c0.6,3.6,4.1,6,7.7,5.4c3.6-0.6,6-4.1,5.4-7.7 l-4.4-24.8C390.1,348.5,386.7,346.1,383.1,346.7z M389.1,380.9c-1.5,0.3-3-0.8-3.3-2.3c-0.3-1.5,0.8-3,2.3-3.3 c1.5-0.3,3,0.8,3.3,2.3C391.7,379.1,390.6,380.6,389.1,380.9z M384.7,356.1c-1.5,0.3-3-0.8-3.3-2.3c-0.3-1.5,0.8-3,2.3-3.3 c1.5-0.3,3,0.8,3.3,2.3C387.3,354.3,386.3,355.8,384.7,356.1z" class="st11"/></g><path id="XMLID_94_" d="M480.5,250h-99c-8.5,0-15.3,6.5-15.3,15c0,8.5,6.9,15,15.3,15h99c8.5,0,15.3-6.5,15.3-15	C495.8,256.5,489,250,480.5,250z" class="st6"/><g id="XMLID_97_"><g id="XMLID_98_"><line id="XMLID_106_" x1="393.1" x2="383.8" y1="269.5" y2="356.2" class="st12"/><path id="XMLID_102_" d="M421.6,233.7c1.4-13.4-8.3-25.4-21.7-26.9c-13.4-1.4-25.4,8.3-26.9,21.7 c-1.3,12.5,5.9,34.4,17.8,38.4c-0.3,0.2-0.5,0.7-0.5,1.1c-0.1,0.7,0.4,1.5,1.1,1.5l3.6,0.4c0.7,0.1,1.3-0.6,1.4-1.3 c0-0.3-0.1-0.8-0.3-1.1C408.5,266.2,420.2,246.2,421.6,233.7z" class="st13"/><g id="XMLID_99_"><defs><path id="XMLID_100_" d="M421.5,233.8c1.4-13.4-8.3-25.4-21.7-26.9c-13.4-1.4-25.4,8.3-26.9,21.7c-1.3,12.5,5.9,34.4,17.8,38.4 c-0.3,0.2-0.5,0.7-0.5,1.1c-0.1,0.7,0.4,1.5,1.1,1.5l3.6,0.4c0.7,0.1,1.3-0.6,1.4-1.3c0-0.3-0.1-0.8-0.3-1.1 C408.5,266.3,420.2,246.4,421.5,233.8z"/></defs><clipPath id="XMLID_49_"><use xlink:href="#XMLID_100_" style="overflow:visible"/></clipPath><rect id="XMLID_101_" width="27.2" height="92.8" x="396.3" y="193.5" class="st14" transform="matrix(0.9944 0.1061 -0.1061 0.9944 27.776 -42.1565)"/></g></g></g><g id="XMLID_103_"><g id="XMLID_104_"><line id="XMLID_105_" x1="409.1" x2="388.3" y1="309.7" y2="378.7" class="st15"/><path id="XMLID_109_" d="M437.7,285c3.2-10.7-2.9-21.9-13.5-25.1c-10.7-3.2-21.9,2.9-25.1,13.5 c-3,10-0.5,28.9,8.6,33.9c-0.3,0.1-0.5,0.5-0.6,0.8c-0.2,0.5,0.1,1.2,0.6,1.4l2.9,0.9c0.5,0.2,1.2-0.3,1.3-0.8 c0.1-0.3,0.1-0.7-0.1-0.9C422.1,309.4,434.7,295,437.7,285z" class="st10"/><g id="XMLID_111_"><defs><path id="XMLID_110_" d="M437.6,285.1c3.2-10.7-2.9-21.9-13.5-25.1s-21.9,2.9-25.1,13.5c-3,10-0.5,28.9,8.6,33.9 c-0.3,0.1-0.5,0.5-0.6,0.8c-0.2,0.5,0.1,1.2,0.6,1.4l2.9,0.9c0.5,0.2,1.2-0.3,1.3-0.8c0.1-0.3,0.1-0.7-0.1-0.9 C422.1,309.5,434.6,295,437.6,285.1z"/></defs><clipPath id="XMLID_50_"><use xlink:href="#XMLID_110_" style="overflow:visible"/></clipPath><rect id="XMLID_108_" width="22.5" height="76.7" x="416" y="249.8" class="st16" transform="matrix(0.9577 0.2877 -0.2877 0.9577 100.9631 -110.7268)"/></g></g></g><g id="XMLID_119_"><g id="XMLID_120_"><line id="XMLID_125_" x1="327.9" x2="343.2" y1="257.8" y2="353.8" class="st17"/><path id="XMLID_124_" d="M348.1,211c-2.4-14.8-16.3-25-31.2-22.6c-14.8,2.4-25,16.3-22.6,31.2 c2.2,13.9,16.4,35.3,30.4,36.2c-0.2,0.3-0.3,0.9-0.2,1.3c0.1,0.8,0.8,1.5,1.6,1.3l4-0.6c0.8-0.1,1.2-1.1,1.1-1.8 c-0.1-0.4-0.3-0.8-0.6-1.1C343.5,249.8,350.3,224.9,348.1,211z" class="st18"/><g id="XMLID_121_"><defs><path id="XMLID_122_" d="M348.1,211.1c-2.4-14.8-16.3-25-31.2-22.6c-14.8,2.4-25,16.3-22.6,31.2c2.2,13.9,16.4,35.3,30.4,36.2 c-0.2,0.3-0.3,0.9-0.2,1.3c0.1,0.8,0.8,1.5,1.6,1.3l4-0.6c0.8-0.1,1.2-1.1,1.1-1.8c-0.1-0.4-0.3-0.8-0.6-1.1 C343.5,249.9,350.3,225,348.1,211.1z"/></defs><clipPath id="XMLID_70_"><use xlink:href="#XMLID_122_" style="overflow:visible"/></clipPath><rect id="XMLID_123_" width="30.3" height="103.5" x="322.2" y="169.2" class="st19" transform="matrix(0.9875 -0.1573 0.1573 0.9875 -30.566 55.8333)"/></g></g></g><g id="XMLID_107_"><g id="XMLID_112_"><line id="XMLID_117_" x1="367.1" x2="367.1" y1="221.9" y2="344.2" class="st20"/><path id="XMLID_116_" d="M399.5,170.9c0-17.8-14.4-32.2-32.2-32.2S335,153.1,335,170.9c0,16.6,12.6,44.4,28.8,48 c-0.3,0.3-0.5,1-0.5,1.5c0,0.9,0.7,1.9,1.6,1.9h4.8c0.9,0,1.6-1,1.6-1.9c0-0.5-0.2-1-0.5-1.4C386.9,215.4,399.5,187.5,399.5,170.9 z" class="st8"/><g id="XMLID_113_"><defs><path id="XMLID_114_" d="M399.5,171c0-17.8-14.4-32.2-32.2-32.2S335,153.2,335,171c0,16.6,12.6,44.4,28.8,48 c-0.3,0.3-0.5,1-0.5,1.5c0,0.9,0.7,1.9,1.6,1.9h4.8c0.9,0,1.6-1,1.6-1.9c0-0.5-0.2-1-0.5-1.4C386.9,215.5,399.5,187.7,399.5,171 z"/></defs><clipPath id="XMLID_71_"><use xlink:href="#XMLID_114_" style="overflow:visible"/></clipPath><rect id="XMLID_115_" width="35.9" height="122.5" x="367.1" y="119.3" class="st21"/></g></g></g><path id="XMLID_118_" d="M501.3,291h-91.9c-7.8,0-14.2,6.2-14.2,14c0,7.8,6.4,14,14.2,14h91.9c7.8,0,14.2-6.2,14.2-14	C515.6,297.2,509.2,291,501.3,291z" class="st22"/><path id="XMLID_127_" d="M304,401h-84.2c-7.2,0-13,5.9-13,13c0,7.1,5.8,13,13,13H304c7.2,0,13-5.9,13-13	C317,406.9,311.2,401,304,401z" class="st2"/><path id="XMLID_126_" d="M297.4,393h-41.7c-3.6,0-6.5,3.3-6.5,7.5c0,4.2,2.9,7.5,6.5,7.5h41.7c3.6,0,6.5-3.3,6.5-7.5	C303.9,396.3,301,393,297.4,393z" class="st2"/><path id="XMLID_96_" d="M283.6,416h-57.5c-4.9,0-8.9,4.7-8.9,10.5c0,5.8,4,10.5,8.9,10.5h57.5c4.9,0,8.9-4.7,8.9-10.5	C292.5,420.7,288.6,416,283.6,416z" class="st2"/><path id="XMLID_132_" d="M-61,349h-161c-6.3,0-11.3,5.2-11.3,11.5c0,6.3,5.1,11.5,11.3,11.5h161	c6.3,0,11.3-5.2,11.3-11.5C-49.7,354.2-54.7,349-61,349z" class="st23"/><path id="XMLID_128_" d="M-10.2,332h-122.5c-4.8,0-8.6,3.7-8.6,8.5c0,4.8,3.9,8.5,8.6,8.5h122.5c4.8,0,8.6-3.7,8.6-8.5	C-1.6,335.7-5.4,332-10.2,332z" class="st23"/><path id="XMLID_129_" d="M-40.2,360h-80.5c-3.1,0-5.7,2.6-5.7,5.5s2.5,5.5,5.7,5.5h80.5c3.1,0,5.7-2.6,5.7-5.5	S-37,360-40.2,360z" class="st23"/><circle id="XMLID_130_" cx="-144" cy="154.3" r="63.5" class="st6"/><circle id="XMLID_131_" cx="-144" cy="154.3" r="70.7" class="st24"/><circle id="XMLID_8_" cx="-144" cy="154.3" r="101" class="st25"/><circle id="XMLID_9_" cx="-161" cy="143.5" r="19.2" class="st26"/><circle id="XMLID_10_" cx="-108.3" cy="143.5" r="9" class="st27"/><circle id="XMLID_11_" cx="-127.8" cy="114.7" r="4.4" class="st27"/><g id="XMLID_13_"><path id="XMLID_33_" d="M100.1,60.3L88.4,46.4l11.7-13.9c2.2-2.6,1.9-6.5-0.8-8.6c-2.6-2.2-6.5-1.9-8.6,0.8L75.8,42.4 c-0.5,0.6-0.9,1.3-1.2,2c0,0,0,0,0,0.1c0,0,0,0.1,0,0.1s0,0.1,0,0.1c0,0,0,0,0,0.1c0,0,0,0.1,0,0.1c0,0,0,0,0,0 c-0.1,0.4-0.2,0.8-0.2,1.1l0,0c0,0.1,0,0.1,0,0.1v0c0,0,0,0.1,0,0.1v0c0,0,0,0.1,0,0.1c0,0,0,0,0,0.1s0,0.1,0,0.1c0,0,0,0.1,0,0.1 s0,0,0,0.1c0,0,0,0.1,0,0.1v0c0,0,0,0.1,0,0.1v0c0,0.1,0,0.1,0,0.1l0,0c0,0.4,0.1,0.8,0.2,1.1c0,0,0,0,0,0s0,0.1,0,0.1 c0,0,0,0,0,0.1c0,0,0,0.1,0,0.1s0,0.1,0,0.1c0,0,0,0,0,0.1c0.3,0.7,0.7,1.4,1.2,2l14.9,17.7c2.2,2.6,6,2.9,8.6,0.8 C102,66.8,102.3,62.9,100.1,60.3z" class="st28"/><path id="XMLID_29_" d="M99.4,23.9c-2.6-2.2-6.5-1.9-8.6,0.8l-15,17.8c-2.2,2.6-1.9,6.5,0.8,8.6 c2.6,2.2,6.5,1.9,8.6-0.8l15-17.8C102.3,29.9,102,26,99.4,23.9z M78.8,48.4c-1.1-0.9-1.3-2.6-0.3-3.7c0.9-1.1,2.6-1.3,3.7-0.3 c1.1,0.9,1.3,2.6,0.3,3.7C81.5,49.2,79.9,49.4,78.8,48.4z M93.8,30.6c-1.1-0.9-1.3-2.6-0.3-3.7c0.9-1.1,2.6-1.3,3.7-0.3 c1.1,0.9,1.3,2.6,0.3,3.7C96.5,31.4,94.9,31.5,93.8,30.6z" class="st8"/><path id="XMLID_25_" d="M99.4,69c2.6-2.2,2.9-6,0.8-8.6l-15-17.8c-2.2-2.6-6-2.9-8.6-0.8c-2.6,2.2-2.9,6-0.8,8.6 l15,17.8C92.9,70.8,96.8,71.2,99.4,69z M78.8,44.4c1.1-0.9,2.7-0.8,3.7,0.3c0.9,1.1,0.8,2.7-0.3,3.7c-1.1,0.9-2.7,0.8-3.7-0.3 C77.5,47,77.7,45.3,78.8,44.4z M93.8,62.3c1.1-0.9,2.7-0.8,3.7,0.3c0.9,1.1,0.8,2.7-0.3,3.7C96,67.2,94.4,67,93.4,66 C92.5,64.8,92.6,63.2,93.8,62.3z" class="st9"/><path id="XMLID_24_" d="M108.9,32.5l11.7,13.9l-11.7,13.9c-2.2,2.6-1.9,6.5,0.8,8.6c2.6,2.2,6.5,1.9,8.6-0.8 l14.9-17.7c0.5-0.6,0.9-1.3,1.2-2c0,0,0,0,0-0.1c0,0,0-0.1,0-0.1s0-0.1,0-0.1c0,0,0,0,0-0.1c0,0,0-0.1,0-0.1c0,0,0,0,0,0 c0.1-0.4,0.2-0.8,0.2-1.1l0,0c0-0.1,0-0.1,0-0.1v0c0,0,0-0.1,0-0.1v0c0,0,0-0.1,0-0.1c0,0,0,0,0-0.1c0,0,0-0.1,0-0.1 c0,0,0-0.1,0-0.1s0,0,0-0.1c0,0,0-0.1,0-0.1v0c0,0,0-0.1,0-0.1v0c0-0.1,0-0.1,0-0.1l0,0c0-0.4-0.1-0.8-0.2-1.1c0,0,0,0,0,0 s0-0.1,0-0.1s0,0,0-0.1c0,0,0-0.1,0-0.1s0-0.1,0-0.1c0,0,0,0,0-0.1c-0.3-0.7-0.7-1.4-1.2-2l-14.9-17.7c-2.2-2.6-6-2.9-8.6-0.8 C107,26,106.7,29.9,108.9,32.5z" class="st28"/><path id="XMLID_20_" d="M109.6,69c2.6,2.2,6.5,1.9,8.6-0.8l15-17.8c2.2-2.6,1.9-6.5-0.8-8.6c-2.6-2.2-6.5-1.9-8.6,0.8 l-15,17.8C106.7,62.9,107,66.8,109.6,69z M130.2,44.4c1.1,0.9,1.3,2.6,0.3,3.7c-0.9,1.1-2.6,1.3-3.7,0.3c-1.1-0.9-1.3-2.6-0.3-3.7 C127.5,43.7,129.1,43.5,130.2,44.4z M115.3,62.3c1.1,0.9,1.3,2.6,0.3,3.7c-0.9,1.1-2.6,1.3-3.7,0.3c-1.1-0.9-1.3-2.6-0.3-3.7 C112.5,61.5,114.1,61.4,115.3,62.3z" class="st10"/><path id="XMLID_15_" d="M109.6,23.9c-2.6,2.2-2.9,6-0.8,8.6l15,17.8c2.2,2.6,6,2.9,8.6,0.8c2.6-2.2,2.9-6,0.8-8.6 l-15-17.8C116.1,22,112.2,21.7,109.6,23.9z M130.2,48.4c-1.1,0.9-2.7,0.8-3.7-0.3c-0.9-1.1-0.8-2.7,0.3-3.7 c1.1-0.9,2.7-0.8,3.7,0.3C131.5,45.8,131.3,47.5,130.2,48.4z M115.3,30.6c-1.1,0.9-2.7,0.8-3.7-0.3c-0.9-1.1-0.8-2.7,0.3-3.7 c1.1-0.9,2.7-0.8,3.7,0.3C116.5,28,116.4,29.6,115.3,30.6z" class="st11"/></g><rect id="XMLID_12_" width="563.9" height="24" x="261.6" y="-81.6" class="st29"/><text id="XMLID_14_" class="st2 st30" transform="matrix(1 0 0 1 261.612 -63.3158)" style="font-size:24px">W3C Developers</text><g id="XMLID_36_"><path id="XMLID_37_" d="M1160.7,36.4c-5.7,0-10.3,4.6-10.3,10.3c0,4.5,2.9,8.4,7,9.7c0.5,0.1,0.7-0.2,0.7-0.5 c0-0.3,0-0.9,0-1.8c-2.8,0.6-3.5-1.4-3.5-1.4c-0.5-1.2-1.1-1.5-1.1-1.5c-0.9-0.6,0.1-0.6,0.1-0.6c1,0.1,1.6,1,1.6,1 c0.9,1.6,2.4,1.1,3,0.8c0.1-0.7,0.4-1.1,0.7-1.4c-2.3-0.3-4.7-1.1-4.7-5.1c0-1.1,0.4-2,1-2.8c-0.1-0.3-0.5-1.3,0.1-2.7 c0,0,0.9-0.3,2.8,1c0.8-0.2,1.7-0.3,2.6-0.3c0.9,0,1.8,0.1,2.6,0.3c2-1.3,2.8-1,2.8-1c0.6,1.4,0.2,2.5,0.1,2.7c0.7,0.7,1,1.6,1,2.8 c0,3.9-2.4,4.8-4.7,5.1c0.4,0.3,0.7,0.9,0.7,1.9c0,1.4,0,2.5,0,2.8c0,0.3,0.2,0.6,0.7,0.5c4.1-1.4,7-5.2,7-9.7 C1170.9,41,1166.3,36.4,1160.7,36.4z" class="st2"/></g><g id="XMLID_34_"><path id="XMLID_38_" d="M1217.4,38.8c-0.9,0.4-1.9,0.7-2.9,0.8c1-0.6,1.8-1.6,2.2-2.8c-1,0.6-2.1,1-3.2,1.2 c-0.9-1-2.2-1.6-3.7-1.6c-2.8,0-5.1,2.3-5.1,5.1c0,0.4,0.1,0.8,0.1,1.2c-4.2-0.2-7.9-2.2-10.4-5.3c-0.4,0.7-0.7,1.6-0.7,2.5 c0,1.8,0.9,3.3,2.2,4.2c-0.8,0-1.6-0.2-2.3-0.6c0,0,0,0.1,0,0.1c0,2.4,1.8,4.5,4.1,5c-0.4,0.1-0.9,0.2-1.3,0.2c-0.3,0-0.6,0-1-0.1 c0.6,2,2.5,3.5,4.7,3.5c-1.7,1.4-3.9,2.2-6.3,2.2c-0.4,0-0.8,0-1.2-0.1c2.2,1.4,4.9,2.3,7.8,2.3c9.3,0,14.4-7.7,14.4-14.4 c0-0.2,0-0.4,0-0.7C1215.9,40.7,1216.7,39.8,1217.4,38.8z" class="st2"/></g><rect id="XMLID_35_" width="433.5" height="58.5" x="616.9" y="155.2" class="st29"/><text id="XMLID_39_" transform="matrix(1 0 0 1 616.9404 174.1982)"><tspan x="0" y="0" class="st2 st30 st31">Learn, build and lead the Web to its </tspan><tspan x="0" y="30" class="st2 st30 st31">full potential together.</tspan></text><rect id="XMLID_40_" width="498" height="150.3" x="618.4" y="237.5" class="st29"/><text id="XMLID_41_" transform="matrix(1 0 0 1 618.4401 252.7123)"><tspan x="0" y="0" class="st2 st30 st32">Lorem ipsum dolor sit amet, consectetur adipiscing </tspan><tspan x="0" y="24" class="st2 st30 st32">elit, sed do eiusmod tempor incididunt ut labore et </tspan><tspan x="0" y="48" class="st2 st30 st32">dolore magna aliqua. Ut enim ad minim veniam, quis </tspan><tspan x="0" y="72" class="st2 st30 st32">nostrud exercitation ullamco laboris nisi ut aliquip </tspan><tspan x="0" y="96" class="st2 st30 st32">ex ea commodo consequat. Duis aute irure dolor in </tspan><tspan x="0" y="120" class="st2 st30 st32">reprehenderit in voluptate velit</tspan></text><path id="XMLID_42_" d="M799.4,456.1h-176c-2.8,0-5-2.2-5-5V407c0-2.8,2.2-5,5-5h176c2.8,0,5,2.2,5,5v44.1	C804.4,453.9,802.2,456.1,799.4,456.1z" class="st33"/><rect id="XMLID_44_" width="256.4" height="24.5" x="825.5" y="418.8" class="st29"/><text id="XMLID_43_" class="st2 st30 st34" transform="matrix(1 0 0 1 825.4907 432.5226)">learn more about this page</text></svg>