<svg xmlns="http://www.w3.org/2000/svg" xmlns:xlink="http://www.w3.org/1999/xlink" id="Layer_1" x="0" y="0" version="1.1" viewBox="0 0 400 400" xml:space="preserve" style="enable-background:new 0 0 400 400"><style type="text/css">.st0{fill:#455164}.st1{fill:#333c4e}.st2{fill:#ecf0f1}.st3{fill:#f99d1c}.st4{fill:#d02e27}.st5{fill:#30b4c5}.st6{fill:#694d9f}</style><circle id="XMLID_2_" cx="200" cy="200" r="162.5" class="st0"/><circle id="XMLID_1_" cx="200" cy="200" r="150" class="st1"/><g id="XMLID_3_"><g id="XMLID_539_"><g id="XMLID_590_"><circle id="XMLID_591_" cx="130" cy="200" r="20" class="st2"/></g><g id="XMLID_588_"><circle id="XMLID_589_" cx="177.5" cy="152.5" r="20" class="st2"/></g><g id="XMLID_586_"><circle id="XMLID_587_" cx="177.5" cy="247.5" r="20" class="st2"/></g><g id="XMLID_584_"><rect id="XMLID_585_" width="40" height="67.2" x="133.7" y="142.7" class="st2" transform="matrix(0.7071 0.7071 -0.7071 0.7071 169.6621 -57.095)"/></g><g id="XMLID_582_"><rect id="XMLID_583_" width="67.2" height="40" x="120.2" y="203.8" class="st2" transform="matrix(0.7071 0.7071 -0.7071 0.7071 203.2477 -43.1827)"/></g><g id="XMLID_580_"><rect id="XMLID_581_" width="30" height="67.2" x="138.8" y="142.7" class="st3" transform="matrix(0.7071 0.7071 -0.7071 0.7071 169.6599 -57.0952)"/></g><g id="XMLID_578_"><rect id="XMLID_579_" width="67.2" height="30" x="120.2" y="208.8" class="st4" transform="matrix(0.7071 0.7071 -0.7071 0.7071 203.2475 -43.1828)"/></g><g id="XMLID_576_"><circle id="XMLID_577_" cx="177.5" cy="152.5" r="15" class="st3"/></g><g id="XMLID_574_"><circle id="XMLID_575_" cx="130" cy="200" r="15" class="st4"/></g><g id="XMLID_572_"><circle id="XMLID_573_" cx="177.5" cy="247.5" r="15" class="st4"/></g><g id="XMLID_570_"><circle id="XMLID_571_" cx="130" cy="200" r="7.5" class="st2"/></g><g id="XMLID_568_"><circle id="XMLID_569_" cx="177.5" cy="152.5" r="7.5" class="st2"/></g><g id="XMLID_566_"><circle id="XMLID_567_" cx="177.5" cy="247.5" r="7.5" class="st2"/></g><g id="XMLID_564_"><circle id="XMLID_565_" cx="270" cy="200" r="20" class="st2"/></g><g id="XMLID_562_"><circle id="XMLID_563_" cx="222.5" cy="152.5" r="20" class="st2"/></g><g id="XMLID_560_"><circle id="XMLID_561_" cx="222.5" cy="247.5" r="20" class="st2"/></g><g id="XMLID_558_"><rect id="XMLID_559_" width="67.2" height="40" x="212.7" y="156.2" class="st2" transform="matrix(0.7071 0.7071 -0.7071 0.7071 196.7542 -122.5028)"/></g><g id="XMLID_556_"><rect id="XMLID_557_" width="40" height="67.2" x="226.2" y="190.2" class="st2" transform="matrix(0.7071 0.7071 -0.7071 0.7071 230.3403 -108.5901)"/></g><g id="XMLID_554_"><rect id="XMLID_555_" width="67.2" height="30" x="212.7" y="161.3" class="st5" transform="matrix(0.7071 0.7071 -0.7071 0.7071 196.7525 -122.5026)"/></g><g id="XMLID_552_"><rect id="XMLID_553_" width="30" height="67.2" x="231.3" y="190.2" class="st6" transform="matrix(0.7071 0.7071 -0.7071 0.7071 230.3401 -108.5902)"/></g><g id="XMLID_550_"><circle id="XMLID_551_" cx="270" cy="200" r="15" class="st6"/></g><g id="XMLID_548_"><circle id="XMLID_549_" cx="222.5" cy="152.5" r="15" class="st5"/></g><g id="XMLID_546_"><circle id="XMLID_547_" cx="222.5" cy="247.5" r="15" class="st6"/></g><g id="XMLID_544_"><circle id="XMLID_545_" cx="270" cy="200" r="7.5" class="st2"/></g><g id="XMLID_542_"><circle id="XMLID_543_" cx="222.5" cy="152.5" r="7.5" class="st2"/></g><g id="XMLID_540_"><circle id="XMLID_541_" cx="222.5" cy="247.5" r="7.5" class="st2"/></g></g></g></svg>