<svg xmlns="http://www.w3.org/2000/svg" xmlns:xlink="http://www.w3.org/1999/xlink" style="enable-background:new 0 0 1690 480" id="Layer_1" x="0" y="0" version="1.1" viewBox="0 0 1690 480" xml:space="preserve"><style type="text/css">.st0{clip-path:url(#XMLID_73_)}.st1,.st2{clip-path:url(#XMLID_74_);fill:#ecf0f1}.st2{fill:none;stroke:#ecf0f1;stroke-width:80}.st3{fill:none;stroke:#f99d1c;stroke-width:60}.st3,.st4,.st5,.st6{clip-path:url(#XMLID_74_)}.st4{fill:none;stroke:#d02e27;stroke-width:60}.st5{fill:#f99d1c}.st6{fill:#d02e27}.st7{fill:none;stroke:#30b4c5;stroke-width:60}.st10,.st7,.st8,.st9{clip-path:url(#XMLID_74_)}.st8{fill:none;stroke:#694d9f;stroke-width:60}.st9{fill:#694d9f}.st10{fill:#30b4c5}.st11{fill:#ecf0f1}</style><g id="XMLID_1_"><g id="XMLID_2_"><defs><rect id="XMLID_3_" width="480" height="480" x="0"/></defs><clipPath id="XMLID_73_"><use style="overflow:visible" xlink:href="#XMLID_3_"/></clipPath><g id="XMLID_4_" class="st0"><defs><rect id="XMLID_5_" width="480" height="480" x="0"/></defs><clipPath id="XMLID_74_"><use style="overflow:visible" xlink:href="#XMLID_5_"/></clipPath><path id="XMLID_31_" d="M100,200c22.1,0,40,17.9,40,40c0,22.1-17.9,40-40,40s-40-17.9-40-40 C60,217.9,77.9,200,100,200" class="st1"/><path id="XMLID_30_" d="M195,105c22.1,0,40,17.9,40,40c0,22.1-17.9,40-40,40s-40-17.9-40-40 C155,122.9,172.9,105,195,105" class="st1"/><path id="XMLID_29_" d="M195,295c22.1,0,40,17.9,40,40s-17.9,40-40,40s-40-17.9-40-40S172.9,295,195,295" class="st1"/><line id="XMLID_28_" x1="100" x2="195" y1="240" y2="145" class="st2"/><line id="XMLID_27_" x1="100" x2="195" y1="240" y2="335" class="st2"/><line id="XMLID_26_" x1="100" x2="195" y1="240" y2="145" class="st3"/><line id="XMLID_25_" x1="100" x2="195" y1="240" y2="335" class="st4"/><path id="XMLID_24_" d="M195,115c16.6,0,30,13.4,30,30s-13.4,30-30,30s-30-13.4-30-30S178.4,115,195,115" class="st5"/><path id="XMLID_23_" d="M100,210c16.6,0,30,13.4,30,30s-13.4,30-30,30s-30-13.4-30-30S83.4,210,100,210" class="st6"/><path id="XMLID_22_" d="M195,305c16.6,0,30,13.4,30,30s-13.4,30-30,30s-30-13.4-30-30S178.4,305,195,305" class="st6"/><path id="XMLID_21_" d="M100,225c8.3,0,15,6.7,15,15c0,8.3-6.7,15-15,15s-15-6.7-15-15C85,231.7,91.7,225,100,225" class="st1"/><path id="XMLID_20_" d="M195,130c8.3,0,15,6.7,15,15c0,8.3-6.7,15-15,15c-8.3,0-15-6.7-15-15 C180,136.7,186.7,130,195,130" class="st1"/><path id="XMLID_19_" d="M195,320c8.3,0,15,6.7,15,15s-6.7,15-15,15c-8.3,0-15-6.7-15-15S186.7,320,195,320" class="st1"/><path id="XMLID_18_" d="M380,200c22.1,0,40,17.9,40,40c0,22.1-17.9,40-40,40c-22.1,0-40-17.9-40-40 C340,217.9,357.9,200,380,200" class="st1"/><path id="XMLID_17_" d="M285,105c22.1,0,40,17.9,40,40c0,22.1-17.9,40-40,40c-22.1,0-40-17.9-40-40 C245,122.9,262.9,105,285,105" class="st1"/><path id="XMLID_16_" d="M285,295c22.1,0,40,17.9,40,40s-17.9,40-40,40c-22.1,0-40-17.9-40-40S262.9,295,285,295" class="st1"/><line id="XMLID_15_" x1="380" x2="285" y1="240" y2="145" class="st2"/><line id="XMLID_14_" x1="380" x2="285" y1="240" y2="335" class="st2"/><line id="XMLID_13_" x1="380" x2="285" y1="240" y2="145" class="st7"/><line id="XMLID_12_" x1="380" x2="285" y1="240" y2="335" class="st8"/><path id="XMLID_11_" d="M380,210c16.6,0,30,13.4,30,30s-13.4,30-30,30s-30-13.4-30-30S363.4,210,380,210" class="st9"/><path id="XMLID_10_" d="M285,115c16.6,0,30,13.4,30,30s-13.4,30-30,30s-30-13.4-30-30S268.4,115,285,115" class="st10"/><path id="XMLID_9_" d="M285,305c16.6,0,30,13.4,30,30s-13.4,30-30,30s-30-13.4-30-30S268.4,305,285,305" class="st9"/><path id="XMLID_8_" d="M380,225c8.3,0,15,6.7,15,15c0,8.3-6.7,15-15,15c-8.3,0-15-6.7-15-15 C365,231.7,371.7,225,380,225" class="st1"/><path id="XMLID_7_" d="M285,130c8.3,0,15,6.7,15,15c0,8.3-6.7,15-15,15c-8.3,0-15-6.7-15-15 C270,136.7,276.7,130,285,130" class="st1"/><path id="XMLID_6_" d="M285,320c8.3,0,15,6.7,15,15s-6.7,15-15,15c-8.3,0-15-6.7-15-15S276.7,320,285,320" class="st1"/></g></g></g><g id="XMLID_35_"><path id="XMLID_36_" d="M819.6,166.9c15.4,0,27.9,4.8,37.3,14.3c9.4,9.5,14.1,21.8,14.1,36.9v16.2 c0,15.1-4.7,27.4-14.1,36.9c-9.4,9.5-21.8,14.2-37.3,14.2H770V275l13.3-2.3v-93.3l-13.3-2.3v-10.3h13.3H819.6z M799.3,179.5v93.3 h20.3c10.9,0,19.6-3.6,25.9-10.8c6.3-7.2,9.5-16.4,9.5-27.7v-16.3c0-11.2-3.2-20.4-9.5-27.6c-6.3-7.2-14.9-10.8-25.9-10.8H799.3z" class="st11"/><path id="XMLID_39_" d="M927,286.9c-12.2,0-22-4.1-29.2-12.2c-7.2-8.2-10.9-18.7-10.9-31.7v-3.6 c0-12.5,3.7-22.9,11.2-31.3c7.5-8.3,16.3-12.5,26.5-12.5c11.8,0,20.8,3.6,26.9,10.7c6.1,7.2,9.1,16.7,9.1,28.6v10h-57.1l-0.2,0.4 c0.2,8.5,2.3,15.4,6.4,20.9c4.1,5.4,9.9,8.2,17.3,8.2c5.4,0,10.2-0.8,14.3-2.3c4.1-1.5,7.6-3.7,10.6-6.4l6.3,10.4 c-3.1,3-7.3,5.6-12.5,7.7C940.5,285.9,934.3,286.9,927,286.9z M924.6,208.2c-5.4,0-9.9,2.3-13.7,6.8c-3.8,4.5-6.1,10.2-7,17 l0.2,0.4h40.6v-2.1c0-6.3-1.7-11.5-5-15.8C936.2,210.3,931.2,208.2,924.6,208.2z" class="st11"/><path id="XMLID_42_" d="M1005.4,207.6l-10.6,1.6l18.1,50.1l1.5,6.3h0.5l1.5-6.3l17.6-50.1l-10.7-1.6v-10.3h34v10.3 l-7.2,1.2l-29.5,76.4h-12.1l-29.8-76.4l-7.2-1.2v-10.3h34V207.6z" class="st11"/><path id="XMLID_44_" d="M1107.3,286.9c-12.2,0-22-4.1-29.2-12.2c-7.2-8.2-10.9-18.7-10.9-31.7v-3.6 c0-12.5,3.7-22.9,11.2-31.3c7.5-8.3,16.3-12.5,26.5-12.5c11.8,0,20.8,3.6,26.9,10.7c6.1,7.2,9.1,16.7,9.1,28.6v10h-57.1l-0.2,0.4 c0.2,8.5,2.3,15.4,6.4,20.9c4.1,5.4,9.9,8.2,17.3,8.2c5.4,0,10.2-0.8,14.3-2.3c4.1-1.5,7.6-3.7,10.6-6.4l6.3,10.4 c-3.1,3-7.3,5.6-12.5,7.7C1120.8,285.9,1114.6,286.9,1107.3,286.9z M1104.9,208.2c-5.4,0-9.9,2.3-13.7,6.8c-3.8,4.5-6.1,10.2-7,17 l0.2,0.4h40.6v-2.1c0-6.3-1.7-11.5-5-15.8C1116.5,210.3,1111.5,208.2,1104.9,208.2z" class="st11"/><path id="XMLID_47_" d="M1154.5,168.7v-10.3h29.3v114.3l13.3,2.3v10.2h-42.5V275l13.3-2.3V171L1154.5,168.7z" class="st11"/><path id="XMLID_49_" d="M1207.6,240.4c0-13,3.5-23.7,10.6-32.2c7-8.4,16.6-12.6,28.7-12.6c12.1,0,21.7,4.2,28.8,12.6 c7.1,8.4,10.6,19.1,10.6,32.2v1.8c0,13.1-3.5,23.8-10.6,32.2c-7,8.3-16.6,12.5-28.7,12.5c-12.2,0-21.8-4.2-28.9-12.6 c-7-8.4-10.6-19.1-10.6-32.2V240.4z M1223.6,242.2c0,9.3,2,17,5.9,23.1c3.9,6.1,9.8,9.1,17.5,9.1c7.6,0,13.4-3,17.3-9.1 c4-6.1,5.9-13.8,5.9-23.1v-1.8c0-9.2-2-16.9-5.9-23c-4-6.1-9.8-9.2-17.5-9.2c-7.7,0-13.5,3.1-17.4,9.2c-3.9,6.1-5.9,13.8-5.9,23 V242.2z" class="st11"/><path id="XMLID_52_" d="M1298.9,308.7l13.3-2.3v-96.6l-13.3-2.3v-10.3h27l1.5,10.7c2.9-4,6.5-7.1,10.7-9.2 c4.2-2.1,9.1-3.2,14.6-3.2c10.9,0,19.4,4.3,25.4,13c6,8.6,9.1,20.1,9.1,34.3v1.7c0,12.7-3,22.9-9.1,30.7 c-6.1,7.8-14.4,11.7-25.1,11.7c-5.4,0-10.2-0.9-14.3-2.7c-4.1-1.8-7.6-4.5-10.4-8.1v30.3l13.3,2.3V319h-42.5V308.7z M1371.1,242.9 c0-10-2-18.2-5.9-24.6c-3.9-6.4-9.7-9.6-17.4-9.6c-4.6,0-8.5,1-11.7,3.1c-3.3,2.1-5.9,4.9-7.9,8.5V263c2,3.6,4.6,6.4,7.8,8.4 c3.2,2,7.2,3,11.9,3c7.6,0,13.3-2.8,17.2-8.3c3.9-5.5,5.9-12.7,5.9-21.5V242.9z" class="st11"/><path id="XMLID_55_" d="M1441.9,286.9c-12.2,0-22-4.1-29.2-12.2c-7.2-8.2-10.9-18.7-10.9-31.7v-3.6 c0-12.5,3.7-22.9,11.2-31.3c7.5-8.3,16.3-12.5,26.5-12.5c11.8,0,20.8,3.6,26.9,10.7c6.1,7.2,9.1,16.7,9.1,28.6v10h-57.1l-0.2,0.4 c0.2,8.5,2.3,15.4,6.4,20.9c4.1,5.4,9.9,8.2,17.3,8.2c5.4,0,10.2-0.8,14.3-2.3c4.1-1.5,7.6-3.7,10.6-6.4l6.3,10.4 c-3.1,3-7.3,5.6-12.5,7.7C1455.4,285.9,1449.1,286.9,1441.9,286.9z M1439.4,208.2c-5.4,0-9.9,2.3-13.7,6.8c-3.8,4.5-6.1,10.2-7,17 l0.2,0.4h40.6v-2.1c0-6.3-1.7-11.5-5-15.8C1451,210.3,1446,208.2,1439.4,208.2z" class="st11"/><path id="XMLID_58_" d="M1491.2,207.6v-10.3h27.6l1.5,12.8c2.5-4.5,5.6-8,9.2-10.6c3.7-2.5,7.8-3.8,12.6-3.8 c1.2,0,2.5,0.1,3.9,0.3c1.3,0.2,2.3,0.4,3,0.6l-2.1,14.9l-9.1-0.5c-4.2,0-7.8,1-10.7,3c-2.9,2-5.1,4.8-6.7,8.3v50.5l13.3,2.3v10.2 h-42.5V275l13.3-2.3v-62.8L1491.2,207.6z" class="st11"/><path id="XMLID_60_" d="M1627.4,224.9h-12l-2.6-10.6c-2-1.8-4.4-3.3-7.4-4.4c-3-1.1-6.3-1.7-10-1.7 c-5.7,0-9.9,1.2-12.7,3.7c-2.8,2.5-4.1,5.5-4.1,9c0,3.5,1.2,6.2,3.7,8.2c2.4,2,7.4,3.8,14.9,5.4c11.1,2.4,19.4,5.6,24.8,9.7 c5.4,4.1,8.1,9.6,8.1,16.5c0,7.8-3.2,14.1-9.5,18.9c-6.3,4.8-14.6,7.2-24.8,7.2c-6.7,0-12.7-0.8-18-2.3c-5.3-1.5-10.1-3.8-14.2-6.7 l-0.1-20.1h12l3,11.8c1.8,1.7,4.3,2.9,7.5,3.7c3.2,0.8,6.4,1.1,9.7,1.1c5.7,0,10.1-1.2,13.4-3.5c3.2-2.3,4.8-5.3,4.8-9.1 c0-3.5-1.3-6.4-4-8.7s-7.8-4.3-15.2-5.9c-10.7-2.3-18.7-5.5-24.1-9.5c-5.4-4-8.1-9.4-8.1-16.3c0-7.2,3-13.3,9.1-18.3 c6.1-5,14-7.6,23.8-7.6c6.7,0,12.7,0.9,18,2.6c5.3,1.7,9.7,4.1,13.3,7.2L1627.4,224.9z" class="st11"/></g><g id="XMLID_86_"><g id="XMLID_87_" image-rendering="optimizeQuality" shape-rendering="geometricPrecision" text-rendering="geometricPrecision"><g id="XMLID_88_" image-rendering="optimizeQuality" shape-rendering="geometricPrecision" text-rendering="geometricPrecision"><g id="Foreground_2_"><g id="XMLID_97_"><path id="XMLID_98_" d="M541.6,167.7l22,72.9l22-72.9h16h43.8v7.2l-22.5,37.7c7.9,2.5,13.9,7,17.9,13.5 c4.1,6.5,6.1,14.1,6.1,22.9c0,10.8-3,20-8.9,27.3c-5.9,7.4-13.6,11.1-23,11.1c-7.1,0-13.3-2.2-18.5-6.6 c-5.3-4.4-9.2-10.3-11.7-17.8l12.5-5c1.8,4.5,4.2,8.1,7.2,10.7c3,2.6,6.5,3.9,10.6,3.9c4.3,0,7.9-2.3,10.8-6.9 c2.9-4.6,4.4-10.2,4.4-16.7c0-7.2-1.6-12.8-4.7-16.7c-3.7-4.6-9.4-6.9-17.2-6.9h-6.1v-7.1l21.3-35.8h-25.7l-1.5,2.4 l-31.2,102.5h-1.5l-22.8-74.2L518,287.4h-1.5L480,167.7h16l22,72.9l14.9-49.1l-7.3-23.8L541.6,167.7z" class="st11"/></g><path id="XMLID_92_" d="M728.3,167.7c-3.1,0-5.9,1.1-8.1,3.2c-2.3,2.2-3.5,5.1-3.5,8.1c0,3,1.2,5.7,3.4,7.9 c2.2,2.2,5.1,3.4,8.2,3.4c3,0,6-1.2,8.3-3.4c2.2-2.1,3.4-4.8,3.4-7.9c0-3-1.2-5.8-3.4-7.9C734.4,168.9,731.5,167.7,728.3,167.7z M738.4,179.1c0,2.6-1,5-2.9,6.8c-2,1.9-4.5,2.9-7.2,2.9c-2.6,0-5.1-1-7-2.9c-1.9-1.9-3-4.3-3-6.9s1.1-5.1,3.1-7 c1.8-1.8,4.3-2.8,7-2.8c2.8,0,5.3,1,7.2,2.9C737.4,173.9,738.4,176.4,738.4,179.1z M728.7,172.4h-5v12.8h2.5v-5.5h2.5l2.7,5.5 h2.8l-2.9-5.8c1.9-0.4,3-1.6,3-3.5C734.1,173.6,732.3,172.4,728.7,172.4z M728.2,174c2.3,0,3.4,0.6,3.4,2.2c0,1.5-1.1,2-3.3,2 h-2.1V174H728.2z" class="st11"/></g><g id="Calque_1_2_"><g id="XMLID_89_"><path id="XMLID_91_" d="M708.8,167l2.6,15.3l-9.2,17c0,0-3.5-7.2-9.3-11.2c-4.9-3.4-8.1-4.1-13.1-3.1 c-6.4,1.3-13.7,8.8-16.9,18c-3.8,11-3.8,16.4-4,21.3c-0.2,7.9,1.1,12.5,1.1,12.5s-5.6-10-5.5-24.6c0-10.5,1.7-19.9,6.7-29.3 c4.4-8.2,10.9-13.2,16.6-13.7c6-0.6,10.7,2.2,14.3,5.2c3.8,3.2,7.7,10.1,7.7,10.1L708.8,167z" class="st11"/><path id="XMLID_90_" d="M709.9,253.5c0,0-4,7-6.6,9.7c-2.5,2.7-7,7.5-12.6,9.9c-5.6,2.4-8.5,2.8-14,2.3 c-5.5-0.5-10.6-3.6-12.4-4.9c-1.8-1.3-6.4-5.1-9-8.6s-6.6-10.6-6.6-10.6s2.3,7.1,3.7,10.1c0.8,1.7,3.3,7,6.8,11.7 c3.3,4.3,9.7,11.7,19.5,13.4c9.7,1.7,16.4-2.6,18.1-3.6c1.7-1,5.2-3.9,7.4-6.2c2.3-2.4,4.5-5.5,5.7-7.3 c0.9-1.3,2.3-4.1,2.3-4.1L709.9,253.5z" class="st11"/></g></g></g></g></g></svg>