<svg xmlns="http://www.w3.org/2000/svg" xmlns:xlink="http://www.w3.org/1999/xlink" x="0" y="0" version="1.1" viewBox="0 0 1200 693.8" xml:space="preserve" style="enable-background:new 0 0 1200 693.8"><style type="text/css">.st0,.st1,.st2{stroke:#9fa8da;stroke-width:.8625;stroke-miterlimit:10}.st0{opacity:.8;fill:#a4bede}.st1{fill:#e8eaf6}.st2{fill:#9fa8da}.st3{fill:#fff}.st3,.st4,.st5{stroke:#9fa8da;stroke-width:.8625;stroke-miterlimit:10}.st4{opacity:.7;fill:#9fa8da}.st5{opacity:.8}.st5,.st6{fill:#9fa8da}.st7,.st8{fill:none;stroke:#e8eaf6;stroke-width:.8625;stroke-miterlimit:10}.st8{opacity:.15;fill:#9fa8da}.st9{fill:none}.st10{fill:#e8eaf6;stroke:#e8eaf6;stroke-width:.8625;stroke-miterlimit:10}.st11{opacity:.7}.st12{fill:#e8eaf6;stroke:#9fa8da;stroke-width:1.2785;stroke-miterlimit:10}.st13{opacity:.8}.st14{fill:#a4bede;stroke:#9fa8da;stroke-width:.8625;stroke-miterlimit:10}</style><g id="Layer_1"><path id="XMLID_4_" d="M888.6,578H487.4c-8.3,0-15-6.7-15-15V334.3c0-8.3,6.7-15,15-15h401.2c8.3,0,15,6.7,15,15V563 C903.6,571.3,896.9,578,888.6,578z" class="st0"/><path id="XMLID_1_" d="M888.6,567.5H487.4c-8.3,0-15-6.7-15-15V323.7c0-8.3,6.7-15,15-15h401.2c8.3,0,15,6.7,15,15 v228.7C903.6,560.8,896.9,567.5,888.6,567.5z" class="st1"/><path id="XMLID_2_" d="M888.6,308.7H487.4c-8.3,0-15-6.7-15-15V65c0-8.3,6.7-15,15-15h401.2c8.3,0,15,6.7,15,15v228.7 C903.6,302,896.9,308.7,888.6,308.7z" class="st2"/><path id="XMLID_3_" d="M877,287.2H498.9c-2.8,0-5-2.2-5-5V76.6c0-2.8,2.2-5,5-5H877c2.8,0,5,2.2,5,5v205.6 C882,284.9,879.8,287.2,877,287.2z" class="st3"/><path id="XMLID_5_" d="M867.7,472.6H508.2c-5.5,0-10-4.5-10-10v-118c0-5.5,4.5-10,10-10h359.5c5.5,0,10,4.5,10,10v118 C877.7,468.1,873.3,472.6,867.7,472.6z" class="st0"/><path id="XMLID_6_" d="M738.4,558.9H637.6c-5.5,0-10-4.5-10-10v-57.6c0-5.5,4.5-10,10-10h100.7c5.5,0,10,4.5,10,10 v57.6C748.4,554.4,743.9,558.9,738.4,558.9z" class="st0"/><path id="XMLID_7_" d="M760.6,462.1H615.4c-2.8,0-5-2.2-5-5v-11.6c0-2.8,2.2-5,5-5h145.2c2.8,0,5,2.2,5,5v11.6 C765.6,459.8,763.4,462.1,760.6,462.1z" class="st4"/><path id="XMLID_8_" d="M786,462.1h-11.6c-2.8,0-5-2.2-5-5v-11.6c0-2.8,2.2-5,5-5H786c2.8,0,5,2.2,5,5v11.6 C791,459.8,788.7,462.1,786,462.1z" class="st4"/><path id="XMLID_9_" d="M812.7,462.1h-11.6c-2.8,0-5-2.2-5-5v-11.6c0-2.8,2.2-5,5-5h11.6c2.8,0,5,2.2,5,5v11.6 C817.7,459.8,815.5,462.1,812.7,462.1z" class="st4"/><path id="XMLID_10_" d="M838.6,462.1H827c-2.8,0-5-2.2-5-5v-11.6c0-2.8,2.2-5,5-5h11.6c2.8,0,5,2.2,5,5v11.6 C843.6,459.8,841.3,462.1,838.6,462.1z" class="st4"/><path id="XMLID_11_" d="M601.1,462.1h-11.6c-2.8,0-5-2.2-5-5v-11.6c0-2.8,2.2-5,5-5h11.6c2.8,0,5,2.2,5,5v11.6 C606.1,459.8,603.8,462.1,601.1,462.1z" class="st4"/><path id="XMLID_12_" d="M575.2,462.1h-11.6c-2.8,0-5-2.2-5-5v-11.6c0-2.8,2.2-5,5-5h11.6c2.8,0,5,2.2,5,5v11.6 C580.2,459.8,577.9,462.1,575.2,462.1z" class="st4"/><path id="XMLID_13_" d="M549.3,462.1h-11.6c-2.8,0-5-2.2-5-5v-11.6c0-2.8,2.2-5,5-5h11.6c2.8,0,5,2.2,5,5v11.6 C554.3,459.8,552.1,462.1,549.3,462.1z" class="st4"/><path id="XMLID_14_" d="M551.5,435.3h-33.1c-2.8,0-5-2.2-5-5v-11.6c0-2.8,2.2-5,5-5h33.1c2.8,0,5,2.2,5,5v11.6 C556.5,433.1,554.3,435.3,551.5,435.3z" class="st4"/><path id="XMLID_15_" d="M577.4,435.3h-11.6c-2.8,0-5-2.2-5-5v-11.6c0-2.8,2.2-5,5-5h11.6c2.8,0,5,2.2,5,5v11.6 C582.4,433.1,580.1,435.3,577.4,435.3z" class="st4"/><path id="XMLID_16_" d="M603.2,435.3h-11.6c-2.8,0-5-2.2-5-5v-11.6c0-2.8,2.2-5,5-5h11.6c2.8,0,5,2.2,5,5v11.6 C608.2,433.1,606,435.3,603.2,435.3z" class="st4"/><path id="XMLID_17_" d="M629.1,435.3h-11.6c-2.8,0-5-2.2-5-5v-11.6c0-2.8,2.2-5,5-5h11.6c2.8,0,5,2.2,5,5v11.6 C634.1,433.1,631.9,435.3,629.1,435.3z" class="st4"/><path id="XMLID_20_" d="M655.4,435.3h-11.6c-2.8,0-5-2.2-5-5v-11.6c0-2.8,2.2-5,5-5h11.6c2.8,0,5,2.2,5,5v11.6 C660.4,433.1,658.2,435.3,655.4,435.3z" class="st4"/><path id="XMLID_19_" d="M681.3,435.3h-11.6c-2.8,0-5-2.2-5-5v-11.6c0-2.8,2.2-5,5-5h11.6c2.8,0,5,2.2,5,5v11.6 C686.3,433.1,684.1,435.3,681.3,435.3z" class="st4"/><path id="XMLID_18_" d="M707.2,435.3h-11.6c-2.8,0-5-2.2-5-5v-11.6c0-2.8,2.2-5,5-5h11.6c2.8,0,5,2.2,5,5v11.6 C712.2,433.1,709.9,435.3,707.2,435.3z" class="st4"/><path id="XMLID_23_" d="M733,435.3h-11.6c-2.8,0-5-2.2-5-5v-11.6c0-2.8,2.2-5,5-5H733c2.8,0,5,2.2,5,5v11.6 C738,433.1,735.8,435.3,733,435.3z" class="st4"/><path id="XMLID_22_" d="M758.9,435.3h-11.6c-2.8,0-5-2.2-5-5v-11.6c0-2.8,2.2-5,5-5h11.6c2.8,0,5,2.2,5,5v11.6 C763.9,433.1,761.7,435.3,758.9,435.3z" class="st4"/><path id="XMLID_21_" d="M784.8,435.3h-11.6c-2.8,0-5-2.2-5-5v-11.6c0-2.8,2.2-5,5-5h11.6c2.8,0,5,2.2,5,5v11.6 C789.8,433.1,787.6,435.3,784.8,435.3z" class="st4"/><path id="XMLID_24_" d="M857.6,435.3h-33.1c-2.8,0-5-2.2-5-5v-11.6c0-2.8,2.2-5,5-5h33.1c2.8,0,5,2.2,5,5v11.6 C862.6,433.1,860.4,435.3,857.6,435.3z" class="st4"/><path id="XMLID_25_" d="M810.7,435.3h-11.6c-2.8,0-5-2.2-5-5v-11.6c0-2.8,2.2-5,5-5h11.6c2.8,0,5,2.2,5,5v11.6 C815.7,433.1,813.4,435.3,810.7,435.3z" class="st4"/><path id="XMLID_35_" d="M564.1,409.9h-11.6c-2.8,0-5-2.2-5-5v-11.6c0-2.8,2.2-5,5-5h11.6c2.8,0,5,2.2,5,5v11.6 C569.1,407.6,566.9,409.9,564.1,409.9z" class="st4"/><path id="XMLID_34_" d="M590,409.9h-11.6c-2.8,0-5-2.2-5-5v-11.6c0-2.8,2.2-5,5-5H590c2.8,0,5,2.2,5,5v11.6 C595,407.6,592.8,409.9,590,409.9z" class="st4"/><path id="XMLID_33_" d="M615.9,409.9h-11.6c-2.8,0-5-2.2-5-5v-11.6c0-2.8,2.2-5,5-5h11.6c2.8,0,5,2.2,5,5v11.6 C620.9,407.6,618.7,409.9,615.9,409.9z" class="st4"/><path id="XMLID_32_" d="M642.2,409.9h-11.6c-2.8,0-5-2.2-5-5v-11.6c0-2.8,2.2-5,5-5h11.6c2.8,0,5,2.2,5,5v11.6 C647.2,407.6,645,409.9,642.2,409.9z" class="st4"/><path id="XMLID_31_" d="M668.1,409.9h-11.6c-2.8,0-5-2.2-5-5v-11.6c0-2.8,2.2-5,5-5h11.6c2.8,0,5,2.2,5,5v11.6 C673.1,407.6,670.8,409.9,668.1,409.9z" class="st4"/><path id="XMLID_30_" d="M693.9,409.9h-11.6c-2.8,0-5-2.2-5-5v-11.6c0-2.8,2.2-5,5-5h11.6c2.8,0,5,2.2,5,5v11.6 C698.9,407.6,696.7,409.9,693.9,409.9z" class="st4"/><path id="XMLID_29_" d="M719.8,409.9h-11.6c-2.8,0-5-2.2-5-5v-11.6c0-2.8,2.2-5,5-5h11.6c2.8,0,5,2.2,5,5v11.6 C724.8,407.6,722.6,409.9,719.8,409.9z" class="st4"/><path id="XMLID_28_" d="M745.7,409.9h-11.6c-2.8,0-5-2.2-5-5v-11.6c0-2.8,2.2-5,5-5h11.6c2.8,0,5,2.2,5,5v11.6 C750.7,407.6,748.5,409.9,745.7,409.9z" class="st4"/><path id="XMLID_27_" d="M771.6,409.9H760c-2.8,0-5-2.2-5-5v-11.6c0-2.8,2.2-5,5-5h11.6c2.8,0,5,2.2,5,5v11.6 C776.6,407.6,774.3,409.9,771.6,409.9z" class="st4"/><path id="XMLID_26_" d="M797.4,409.9h-11.6c-2.8,0-5-2.2-5-5v-11.6c0-2.8,2.2-5,5-5h11.6c2.8,0,5,2.2,5,5v11.6 C802.4,407.6,800.2,409.9,797.4,409.9z" class="st4"/><path id="XMLID_36_" d="M823.1,409.9h-11.6c-2.8,0-5-2.2-5-5v-11.6c0-2.8,2.2-5,5-5h11.6c2.8,0,5,2.2,5,5v11.6 C828.1,407.6,825.8,409.9,823.1,409.9z" class="st4"/><path id="XMLID_37_" d="M538.5,409.9H514c-2.8,0-5-2.2-5-5v-11.6c0-2.8,2.2-5,5-5h24.5c2.8,0,5,2.2,5,5v11.6 C543.5,407.6,541.3,409.9,538.5,409.9z" class="st4"/><path id="XMLID_38_" d="M861.9,409.9h-24.5c-2.8,0-5-2.2-5-5v-11.6c0-2.8,2.2-5,5-5h24.5c2.8,0,5,2.2,5,5v11.6 C866.9,407.6,864.7,409.9,861.9,409.9z" class="st4"/><path id="XMLID_50_" d="M551.5,384H514c-2.8,0-5-2.2-5-5v-11.6c0-2.8,2.2-5,5-5h37.5c2.8,0,5,2.2,5,5V379 C556.5,381.8,554.3,384,551.5,384z" class="st4"/><path id="XMLID_49_" d="M577.4,384h-11.6c-2.8,0-5-2.2-5-5v-11.6c0-2.8,2.2-5,5-5h11.6c2.8,0,5,2.2,5,5V379 C582.4,381.8,580.1,384,577.4,384z" class="st4"/><path id="XMLID_48_" d="M603.2,384h-11.6c-2.8,0-5-2.2-5-5v-11.6c0-2.8,2.2-5,5-5h11.6c2.8,0,5,2.2,5,5V379 C608.2,381.8,606,384,603.2,384z" class="st4"/><path id="XMLID_47_" d="M629.1,384h-11.6c-2.8,0-5-2.2-5-5v-11.6c0-2.8,2.2-5,5-5h11.6c2.8,0,5,2.2,5,5V379 C634.1,381.8,631.9,384,629.1,384z" class="st4"/><path id="XMLID_46_" d="M655.4,384h-11.6c-2.8,0-5-2.2-5-5v-11.6c0-2.8,2.2-5,5-5h11.6c2.8,0,5,2.2,5,5V379 C660.4,381.8,658.2,384,655.4,384z" class="st4"/><path id="XMLID_45_" d="M681.3,384h-11.6c-2.8,0-5-2.2-5-5v-11.6c0-2.8,2.2-5,5-5h11.6c2.8,0,5,2.2,5,5V379 C686.3,381.8,684.1,384,681.3,384z" class="st4"/><path id="XMLID_44_" d="M707.2,384h-11.6c-2.8,0-5-2.2-5-5v-11.6c0-2.8,2.2-5,5-5h11.6c2.8,0,5,2.2,5,5V379 C712.2,381.8,709.9,384,707.2,384z" class="st4"/><path id="XMLID_43_" d="M733,384h-11.6c-2.8,0-5-2.2-5-5v-11.6c0-2.8,2.2-5,5-5H733c2.8,0,5,2.2,5,5V379 C738,381.8,735.8,384,733,384z" class="st4"/><path id="XMLID_42_" d="M758.9,384h-11.6c-2.8,0-5-2.2-5-5v-11.6c0-2.8,2.2-5,5-5h11.6c2.8,0,5,2.2,5,5V379 C763.9,381.8,761.7,384,758.9,384z" class="st4"/><path id="XMLID_41_" d="M784.8,384h-11.6c-2.8,0-5-2.2-5-5v-11.6c0-2.8,2.2-5,5-5h11.6c2.8,0,5,2.2,5,5V379 C789.8,381.8,787.6,384,784.8,384z" class="st4"/><path id="XMLID_40_" d="M861.9,384h-37.5c-2.8,0-5-2.2-5-5v-11.6c0-2.8,2.2-5,5-5h37.5c2.8,0,5,2.2,5,5V379 C866.9,381.8,864.7,384,861.9,384z" class="st4"/><path id="XMLID_39_" d="M810.7,384h-11.6c-2.8,0-5-2.2-5-5v-11.6c0-2.8,2.2-5,5-5h11.6c2.8,0,5,2.2,5,5V379 C815.7,381.8,813.4,384,810.7,384z" class="st4"/><path id="XMLID_61_" d="M525.5,358.1h-11.6c-2.8,0-5-2.2-5-5v-2.9c0-2.8,2.2-5,5-5h11.6c2.8,0,5,2.2,5,5v2.9 C530.5,355.9,528.2,358.1,525.5,358.1z" class="st4"/><path id="XMLID_60_" d="M551.4,358.1h-11.6c-2.8,0-5-2.2-5-5v-2.9c0-2.8,2.2-5,5-5h11.6c2.8,0,5,2.2,5,5v2.9 C556.4,355.9,554.1,358.1,551.4,358.1z" class="st4"/><path id="XMLID_59_" d="M577.2,358.1h-11.6c-2.8,0-5-2.2-5-5v-2.9c0-2.8,2.2-5,5-5h11.6c2.8,0,5,2.2,5,5v2.9 C582.2,355.9,580,358.1,577.2,358.1z" class="st4"/><path id="XMLID_58_" d="M603.5,358.1H592c-2.8,0-5-2.2-5-5v-2.9c0-2.8,2.2-5,5-5h11.6c2.8,0,5,2.2,5,5v2.9 C608.5,355.9,606.3,358.1,603.5,358.1z" class="st4"/><path id="XMLID_57_" d="M629.4,358.1h-11.6c-2.8,0-5-2.2-5-5v-2.9c0-2.8,2.2-5,5-5h11.6c2.8,0,5,2.2,5,5v2.9 C634.4,355.9,632.2,358.1,629.4,358.1z" class="st4"/><path id="XMLID_56_" d="M655.3,358.1h-11.6c-2.8,0-5-2.2-5-5v-2.9c0-2.8,2.2-5,5-5h11.6c2.8,0,5,2.2,5,5v2.9 C660.3,355.9,658,358.1,655.3,358.1z" class="st4"/><path id="XMLID_55_" d="M681.2,358.1h-11.6c-2.8,0-5-2.2-5-5v-2.9c0-2.8,2.2-5,5-5h11.6c2.8,0,5,2.2,5,5v2.9 C686.2,355.9,683.9,358.1,681.2,358.1z" class="st4"/><path id="XMLID_54_" d="M707,358.1h-11.6c-2.8,0-5-2.2-5-5v-2.9c0-2.8,2.2-5,5-5H707c2.8,0,5,2.2,5,5v2.9 C712,355.9,709.8,358.1,707,358.1z" class="st4"/><path id="XMLID_53_" d="M732.9,358.1h-11.6c-2.8,0-5-2.2-5-5v-2.9c0-2.8,2.2-5,5-5h11.6c2.8,0,5,2.2,5,5v2.9 C737.9,355.9,735.7,358.1,732.9,358.1z" class="st4"/><path id="XMLID_52_" d="M758.8,358.1h-11.6c-2.8,0-5-2.2-5-5v-2.9c0-2.8,2.2-5,5-5h11.6c2.8,0,5,2.2,5,5v2.9 C763.8,355.9,761.5,358.1,758.8,358.1z" class="st4"/><path id="XMLID_51_" d="M784.4,358.1h-11.6c-2.8,0-5-2.2-5-5v-2.9c0-2.8,2.2-5,5-5h11.6c2.8,0,5,2.2,5,5v2.9 C789.4,355.9,787.2,358.1,784.4,358.1z" class="st4"/><path id="XMLID_64_" d="M810.6,358.1H799c-2.8,0-5-2.2-5-5v-2.9c0-2.8,2.2-5,5-5h11.6c2.8,0,5,2.2,5,5v2.9 C815.6,355.9,813.3,358.1,810.6,358.1z" class="st4"/><path id="XMLID_63_" d="M836.4,358.1h-11.6c-2.8,0-5-2.2-5-5v-2.9c0-2.8,2.2-5,5-5h11.6c2.8,0,5,2.2,5,5v2.9 C841.4,355.9,839.2,358.1,836.4,358.1z" class="st4"/><path id="XMLID_62_" d="M862.1,358.1h-11.6c-2.8,0-5-2.2-5-5v-2.9c0-2.8,2.2-5,5-5h11.6c2.8,0,5,2.2,5,5v2.9 C867.1,355.9,864.8,358.1,862.1,358.1z" class="st4"/><path id="XMLID_65_" d="M855.5,320.5h-335c-2.8,0-5-2.2-5-5v-2.9c0-2.8,2.2-5,5-5h335c2.8,0,5,2.2,5,5v2.9 C860.5,318.2,858.2,320.5,855.5,320.5z" class="st5"/></g><g id="Layer_2"><g id="XMLID_1311_"><g id="layer1_2_"><path id="path4263_2_" d="M652.1,136.8c-2.1,0-3.9,0-5.4,1.4c-2.1,2.1-1.9,7.9-1.4,11c-2.5,0.6-5.2,1.4-7.5,2.7 c-1.9-2.7-5.4-7-8.3-7.5c-2.1-0.2-3.7,1.2-5.2,2.7c-1.4,1.2-3.1,2.7-3.1,4.6c-0.2,2.9,3.5,7.2,5.8,9.3c-1.7,2.3-2.9,4.6-3.9,7 c-3.1-0.8-8.5-2.1-11-0.4c-1.7,1.2-2.1,3.3-2.3,5.4c-0.2,2.1-0.6,3.9,0.4,5.6c1.7,2.3,7.2,3.1,10.4,3.5c0.2,2.7,0.6,5.4,1.4,8.1 c-2.9,1.4-7.7,4.1-8.5,6.8c-0.6,2.1,0.4,3.7,1.7,5.6c1,1.7,2.1,3.5,3.9,3.9c2.7,0.6,7.5-2.3,10.1-3.9c0.8,1,1.9,2.1,2.9,2.9 c1,0.8,2.1,1.7,3.3,2.3c-1.2,2.9-3.3,8.1-2.3,10.8c0.8,1.9,2.9,2.7,5,3.3c1.9,0.6,3.7,1.2,5.4,0.4c2.5-1.2,4.3-6.6,5.2-9.7 c2.7,0.4,5.4,0.4,7.9,0c0.8,3.1,2.7,8.5,5.2,9.7c1.9,0.8,3.9,0.2,5.8-0.6c1.9-0.8,3.7-1.4,4.6-3.3c1.2-2.7-0.8-7.9-2.3-10.8 c2.3-1.4,4.3-3.3,6-5.2c2.7,1.9,7.5,4.8,10.1,4.1c1.9-0.4,3.1-2.3,4.1-4.3c1-1.9,1.9-3.5,1.4-5.4c-0.8-2.9-5.8-5.6-8.7-7 c0.8-2.5,1.2-5.2,1.4-7.9c3.1-0.2,8.7-1,10.6-3.5c1.2-1.7,0.8-3.7,0.4-6c-0.4-2.1-0.8-3.9-2.3-5.2c-2.5-1.7-8.1-0.4-11,0.4 c-1-2.5-2.3-4.8-3.9-6.8c2.3-2.3,6-6.6,5.8-9.5c-0.2-2.1-1.9-3.5-3.5-4.8c-1.7-1.2-3.1-2.5-5-2.3c-2.9,0.2-6.4,5-8.3,7.5 c-2.3-1.2-5-2.3-7.5-2.7c0.2-3.1,0.4-8.9-1.4-11C656.5,136.8,654.4,136.8,652.1,136.8z M652.3,165.6c7.9,0,14.3,6.4,14.3,14.3 c0,7.9-6.4,14.3-14.3,14.3s-14.3-6.4-14.3-14.3S644.4,165.6,652.3,165.6z" class="st1"/></g></g><g id="XMLID_1308_"><g id="layer1_1_"><path id="path4263_1_" d="M725.2,163.9c-1.4,0-2.7,0-3.7,1c-1.4,1.4-1.2,5.4-1,7.7c-1.9,0.4-3.5,1-5.2,1.9 c-1.2-1.9-3.7-5-5.8-5.2c-1.4-0.2-2.5,0.8-3.7,1.9c-1,0.8-2.1,1.9-2.3,3.1c-0.2,2.1,2.5,5,3.9,6.6c-1.2,1.4-2.1,3.1-2.7,5 c-2.1-0.6-6-1.4-7.7-0.2c-1.2,0.8-1.4,2.3-1.7,3.7c-0.2,1.4-0.4,2.7,0.4,3.9c1.2,1.7,5,2.3,7.2,2.5c0,1.9,0.4,3.7,1,5.6 c-2.1,1-5.4,2.9-6,4.8c-0.4,1.4,0.4,2.7,1,3.9c0.6,1.2,1.4,2.5,2.7,2.7c1.9,0.4,5.2-1.4,7-2.9c0.6,0.6,1.2,1.4,2.1,2.1 c0.6,0.6,1.4,1.2,2.3,1.7c-0.8,2.1-2.3,5.6-1.4,7.5c0.6,1.2,2.1,1.9,3.3,2.3c1.2,0.4,2.7,0.8,3.7,0.4c1.9-0.8,3.1-4.6,3.5-6.8 c1.9,0.2,3.7,0.2,5.6,0c0.6,2.1,1.9,5.8,3.5,6.8c1.2,0.6,2.7,0.2,4.1-0.4c1.2-0.4,2.7-1,3.1-2.3c0.8-1.9-0.6-5.4-1.7-7.5 c1.4-1,2.9-2.3,4.1-3.7c1.9,1.2,5.2,3.3,7,2.9c1.4-0.4,2.1-1.7,2.9-2.9c0.6-1.2,1.4-2.5,1-3.7c-0.6-2.1-4.1-3.9-6-4.8 c0.6-1.9,0.8-3.7,1-5.6c2.3-0.2,6.2-0.8,7.2-2.5c0.8-1.2,0.6-2.7,0.2-4.1c-0.2-1.4-0.6-2.9-1.7-3.5c-1.7-1.2-5.6-0.2-7.7,0.2 c-0.6-1.7-1.7-3.3-2.7-4.8c1.4-1.7,4.1-4.6,4.1-6.6c-0.2-1.4-1.2-2.5-2.5-3.3c-1-0.8-2.1-1.7-3.5-1.7c-2.1,0.2-4.6,3.3-5.8,5.2 c-1.7-0.8-3.3-1.4-5.2-1.9c0.2-2.3,0.4-6.2-1-7.7C728.3,163.9,726.6,163.9,725.2,163.9z M725.4,184c5.6,0,9.9,4.6,9.9,9.9 c0,5.6-4.6,9.9-9.9,9.9c-5.4,0-9.9-4.6-9.9-9.9C715.5,188.4,719.8,184,725.4,184z" class="st1"/></g></g><g id="XMLID_1176_"><g id="XMLID_1303_"><image style="overflow:visible;opacity:.12" id="XMLID_94_" width="351" height="374" transform="matrix(1 0 0 1 48.4129 235.4129)" xlink:href="637A677FB6AD4B49.png"/><g id="XMLID_81_"><path id="XMLID_93_" d="M388.4,570L94.3,602.1c-2.7,0.3-5.2-1.7-5.5-4.4L53.9,278.3c-0.3-2.7,1.7-5.2,4.4-5.5 l294.1-32.2c2.7-0.3,5.2,1.7,5.5,4.4l34.9,319.4C393.1,567.2,391.1,569.7,388.4,570z" class="st6"/><path id="XMLID_92_" d="M388.4,570L94.3,602.1c-2.7,0.3-5.2-1.7-5.5-4.4L53.9,278.3c-0.3-2.7,1.7-5.2,4.4-5.5 l294.1-32.2c2.7-0.3,5.2,1.7,5.5,4.4l34.9,319.4C393.1,567.2,391.1,569.7,388.4,570z" class="st7"/></g></g><line id="XMLID_1302_" x1="205.1" x2="241.1" y1="256.7" y2="586.1" class="st8"/><line id="XMLID_1301_" x1="200" x2="236" y1="257.3" y2="586.6" class="st8"/><line id="XMLID_1300_" x1="195" x2="231" y1="257.9" y2="587.2" class="st8"/><line id="XMLID_1299_" x1="189.9" x2="225.9" y1="258.4" y2="587.7" class="st8"/><line id="XMLID_1298_" x1="184.8" x2="220.8" y1="259" y2="588.3" class="st8"/><line id="XMLID_1297_" x1="179.8" x2="215.8" y1="259.5" y2="588.8" class="st8"/><line id="XMLID_1296_" x1="174.7" x2="210.7" y1="260.1" y2="589.4" class="st8"/><line id="XMLID_1295_" x1="169.6" x2="205.6" y1="260.6" y2="590" class="st8"/><line id="XMLID_1294_" x1="164.6" x2="200.6" y1="261.2" y2="590.5" class="st8"/><line id="XMLID_1293_" x1="159.5" x2="195.5" y1="261.7" y2="591.1" class="st8"/><line id="XMLID_1292_" x1="154.4" x2="190.4" y1="262.3" y2="591.6" class="st8"/><line id="XMLID_1291_" x1="149.4" x2="185.4" y1="262.8" y2="592.2" class="st8"/><line id="XMLID_1290_" x1="144.3" x2="180.3" y1="263.4" y2="592.7" class="st8"/><line id="XMLID_1289_" x1="139.2" x2="175.2" y1="263.9" y2="593.3" class="st8"/><line id="XMLID_1288_" x1="134.2" x2="170.2" y1="264.5" y2="593.8" class="st8"/><line id="XMLID_1287_" x1="129.1" x2="165.1" y1="265.1" y2="594.4" class="st8"/><line id="XMLID_1286_" x1="124" x2="160" y1="265.6" y2="594.9" class="st8"/><line id="XMLID_1285_" x1="119" x2="155" y1="266.2" y2="595.5" class="st8"/><line id="XMLID_1284_" x1="113.9" x2="149.9" y1="266.7" y2="596" class="st8"/><line id="XMLID_1283_" x1="108.8" x2="144.8" y1="267.3" y2="596.6" class="st8"/><line id="XMLID_1282_" x1="103.8" x2="139.8" y1="267.8" y2="597.2" class="st8"/><line id="XMLID_1281_" x1="98.7" x2="134.7" y1="268.4" y2="597.7" class="st8"/><line id="XMLID_1280_" x1="93.6" x2="129.6" y1="268.9" y2="598.3" class="st8"/><line id="XMLID_1279_" x1="88.6" x2="124.6" y1="269.5" y2="598.8" class="st8"/><line id="XMLID_1278_" x1="83.5" x2="119.5" y1="270" y2="599.4" class="st8"/><line id="XMLID_1277_" x1="78.4" x2="114.4" y1="270.6" y2="599.9" class="st8"/><line id="XMLID_1276_" x1="73.4" x2="109.4" y1="271.2" y2="600.5" class="st8"/><line id="XMLID_1275_" x1="68.3" x2="104.3" y1="271.7" y2="601" class="st8"/><line id="XMLID_1274_" x1="63.2" x2="99.2" y1="272.3" y2="601.6" class="st8"/><line id="XMLID_1273_" x1="58.2" x2="94.2" y1="272.8" y2="602.1" class="st8"/><line id="XMLID_1272_" x1="210.2" x2="246.2" y1="256.2" y2="585.5" class="st8"/><line id="XMLID_1271_" x1="215.2" x2="251.2" y1="255.6" y2="585" class="st8"/><line id="XMLID_1270_" x1="220.3" x2="256.3" y1="255.1" y2="584.4" class="st8"/><line id="XMLID_1269_" x1="225.4" x2="261.4" y1="254.5" y2="583.9" class="st8"/><line id="XMLID_1268_" x1="230.4" x2="266.4" y1="254" y2="583.3" class="st8"/><line id="XMLID_1267_" x1="235.5" x2="271.5" y1="253.4" y2="582.7" class="st8"/><line id="XMLID_1266_" x1="240.6" x2="276.6" y1="252.9" y2="582.2" class="st8"/><line id="XMLID_1265_" x1="245.6" x2="281.6" y1="252.3" y2="581.6" class="st8"/><line id="XMLID_1264_" x1="250.7" x2="286.7" y1="251.8" y2="581.1" class="st8"/><line id="XMLID_1263_" x1="255.8" x2="291.8" y1="251.2" y2="580.5" class="st8"/><line id="XMLID_1262_" x1="260.8" x2="296.8" y1="250.6" y2="580" class="st8"/><line id="XMLID_1261_" x1="265.9" x2="301.9" y1="250.1" y2="579.4" class="st8"/><line id="XMLID_1260_" x1="271" x2="307" y1="249.5" y2="578.9" class="st8"/><line id="XMLID_1259_" x1="276" x2="312" y1="249" y2="578.3" class="st8"/><line id="XMLID_1258_" x1="281.1" x2="317.1" y1="248.4" y2="577.8" class="st8"/><line id="XMLID_1257_" x1="286.2" x2="322.2" y1="247.9" y2="577.2" class="st8"/><line id="XMLID_1256_" x1="291.2" x2="327.2" y1="247.3" y2="576.6" class="st8"/><line id="XMLID_1255_" x1="296.3" x2="332.3" y1="246.8" y2="576.1" class="st8"/><line id="XMLID_1254_" x1="301.4" x2="337.4" y1="246.2" y2="575.5" class="st8"/><line id="XMLID_1253_" x1="306.4" x2="342.4" y1="245.7" y2="575" class="st8"/><line id="XMLID_1252_" x1="311.5" x2="347.5" y1="245.1" y2="574.4" class="st8"/><line id="XMLID_1251_" x1="316.6" x2="352.6" y1="244.5" y2="573.9" class="st8"/><line id="XMLID_1250_" x1="321.6" x2="357.6" y1="244" y2="573.3" class="st8"/><line id="XMLID_1249_" x1="326.7" x2="362.7" y1="243.4" y2="572.8" class="st8"/><line id="XMLID_1248_" x1="331.8" x2="367.8" y1="242.9" y2="572.2" class="st8"/><line id="XMLID_1247_" x1="336.8" x2="372.8" y1="242.3" y2="571.7" class="st8"/><line id="XMLID_1246_" x1="341.9" x2="377.9" y1="241.8" y2="571.1" class="st8"/><line id="XMLID_1245_" x1="347" x2="383" y1="241.2" y2="570.6" class="st8"/><line id="XMLID_1244_" x1="352" x2="388" y1="240.7" y2="570" class="st8"/><line id="XMLID_1243_" x1="357.1" x2="393.1" y1="240.1" y2="569.4" class="st8"/><line id="XMLID_1242_" x1="375.9" x2="71.4" y1="405" y2="438.3" class="st8"/><line id="XMLID_1241_" x1="376.4" x2="71.9" y1="410" y2="443.3" class="st8"/><line id="XMLID_1240_" x1="377" x2="72.5" y1="415.1" y2="448.4" class="st8"/><line id="XMLID_1239_" x1="377.5" x2="73" y1="420.2" y2="453.5" class="st8"/><line id="XMLID_1238_" x1="378.1" x2="73.6" y1="425.2" y2="458.5" class="st8"/><line id="XMLID_1237_" x1="378.7" x2="74.2" y1="430.3" y2="463.6" class="st8"/><line id="XMLID_1236_" x1="379.2" x2="74.7" y1="435.4" y2="468.7" class="st8"/><line id="XMLID_1235_" x1="379.8" x2="75.3" y1="440.4" y2="473.7" class="st8"/><line id="XMLID_1234_" x1="380.3" x2="75.8" y1="445.5" y2="478.8" class="st8"/><line id="XMLID_1233_" x1="380.9" x2="76.4" y1="450.5" y2="483.9" class="st8"/><line id="XMLID_1232_" x1="381.4" x2="76.9" y1="455.6" y2="488.9" class="st8"/><line id="XMLID_1231_" x1="382" x2="77.5" y1="460.7" y2="494" class="st8"/><line id="XMLID_1230_" x1="382.5" x2="78" y1="465.7" y2="499.1" class="st8"/><line id="XMLID_1229_" x1="383.1" x2="78.6" y1="470.8" y2="504.1" class="st8"/><line id="XMLID_1228_" x1="383.6" x2="79.1" y1="475.9" y2="509.2" class="st8"/><line id="XMLID_1227_" x1="384.2" x2="79.7" y1="480.9" y2="514.3" class="st8"/><line id="XMLID_1226_" x1="384.8" x2="80.2" y1="486" y2="519.3" class="st8"/><line id="XMLID_1225_" x1="385.3" x2="80.8" y1="491.1" y2="524.4" class="st8"/><line id="XMLID_1224_" x1="385.9" x2="81.4" y1="496.1" y2="529.5" class="st8"/><line id="XMLID_1223_" x1="386.4" x2="81.9" y1="501.2" y2="534.5" class="st8"/><line id="XMLID_1222_" x1="387" x2="82.5" y1="506.3" y2="539.6" class="st8"/><line id="XMLID_1221_" x1="387.5" x2="83" y1="511.3" y2="544.7" class="st8"/><line id="XMLID_1220_" x1="388.1" x2="83.6" y1="516.4" y2="549.7" class="st8"/><line id="XMLID_1219_" x1="388.6" x2="84.1" y1="521.5" y2="554.8" class="st8"/><line id="XMLID_1218_" x1="389.2" x2="84.7" y1="526.5" y2="559.9" class="st8"/><line id="XMLID_1217_" x1="389.7" x2="85.2" y1="531.6" y2="564.9" class="st8"/><line id="XMLID_1216_" x1="390.3" x2="85.8" y1="536.7" y2="570" class="st8"/><line id="XMLID_1215_" x1="390.8" x2="86.3" y1="541.7" y2="575.1" class="st8"/><line id="XMLID_1214_" x1="391.4" x2="86.9" y1="546.8" y2="580.1" class="st8"/><line id="XMLID_1213_" x1="392" x2="87.5" y1="551.9" y2="585.2" class="st8"/><line id="XMLID_1212_" x1="392.5" x2="88" y1="556.9" y2="590.3" class="st8"/><line id="XMLID_1211_" x1="393.1" x2="88.6" y1="562" y2="595.3" class="st8"/><line id="XMLID_1210_" x1="393.6" x2="89.1" y1="567.1" y2="600.4" class="st8"/><line id="XMLID_1209_" x1="375.3" x2="70.8" y1="399.9" y2="433.2" class="st8"/><path id="XMLID_x5F_67_x5F_" d="M374.8,394.8L70.3,428.1" class="st9"/><text id="XMLID_1207_"><textPath startOffset=".427%" xlink:href="#XMLID_x5F_67_x5F_"/></text><line id="XMLID_1206_" x1="374.2" x2="69.7" y1="389.8" y2="423.1" class="st8"/><line id="XMLID_1205_" x1="373.7" x2="69.2" y1="384.7" y2="418" class="st8"/><line id="XMLID_1204_" x1="373.1" x2="68.6" y1="379.6" y2="412.9" class="st8"/><line id="XMLID_1203_" x1="372.6" x2="68.1" y1="374.6" y2="407.9" class="st8"/><line id="XMLID_1202_" x1="372" x2="67.5" y1="369.5" y2="402.8" class="st8"/><line id="XMLID_1201_" x1="371.5" x2="66.9" y1="364.4" y2="397.7" class="st8"/><line id="XMLID_1200_" x1="370.9" x2="66.4" y1="359.4" y2="392.7" class="st8"/><line id="XMLID_1199_" x1="370.3" x2="65.8" y1="354.3" y2="387.6" class="st8"/><line id="XMLID_1198_" x1="369.8" x2="65.3" y1="349.2" y2="382.5" class="st8"/><line id="XMLID_1197_" x1="369.2" x2="64.7" y1="344.2" y2="377.5" class="st8"/><line id="XMLID_1196_" x1="368.7" x2="64.2" y1="339.1" y2="372.4" class="st8"/><line id="XMLID_1195_" x1="368.1" x2="63.6" y1="334" y2="367.3" class="st8"/><line id="XMLID_1194_" x1="367.6" x2="63.1" y1="329" y2="362.3" class="st8"/><line id="XMLID_1193_" x1="367" x2="62.5" y1="323.9" y2="357.2" class="st8"/><line id="XMLID_1192_" x1="366.5" x2="62" y1="318.8" y2="352.1" class="st8"/><line id="XMLID_1191_" x1="365.9" x2="61.4" y1="313.8" y2="347.1" class="st8"/><line id="XMLID_1190_" x1="365.4" x2="60.9" y1="308.7" y2="342" class="st8"/><line id="XMLID_1189_" x1="364.8" x2="60.3" y1="303.6" y2="336.9" class="st8"/><line id="XMLID_1188_" x1="364.2" x2="59.7" y1="298.6" y2="331.9" class="st8"/><line id="XMLID_1187_" x1="363.7" x2="59.2" y1="293.5" y2="326.8" class="st8"/><line id="XMLID_1186_" x1="363.1" x2="58.6" y1="288.4" y2="321.7" class="st8"/><line id="XMLID_1185_" x1="362.6" x2="58.1" y1="283.4" y2="316.7" class="st8"/><line id="XMLID_1184_" x1="362" x2="57.5" y1="278.3" y2="311.6" class="st8"/><line id="XMLID_1183_" x1="361.5" x2="57" y1="273.2" y2="306.5" class="st8"/><line id="XMLID_1182_" x1="360.9" x2="56.4" y1="268.2" y2="301.5" class="st8"/><line id="XMLID_1181_" x1="360.4" x2="55.9" y1="263.1" y2="296.4" class="st8"/><line id="XMLID_1180_" x1="359.8" x2="55.3" y1="258" y2="291.3" class="st8"/><line id="XMLID_1179_" x1="359.3" x2="54.8" y1="253" y2="286.3" class="st8"/><line id="XMLID_1178_" x1="358.7" x2="54.2" y1="247.9" y2="281.2" class="st8"/><line id="XMLID_1177_" x1="358.1" x2="53.6" y1="242.8" y2="276.1" class="st8"/></g><g id="XMLID_1044_"><g id="XMLID_1171_"><image style="overflow:visible;opacity:.12" id="XMLID_89_" width="356" height="378" transform="matrix(1 0 0 1 44.4129 231.4129)" xlink:href="637A677FB6AD4B4B.png"/><g id="XMLID_79_"><path id="XMLID_88_" d="M347.4,602.9L54,565.2c-2.7-0.4-4.7-2.9-4.3-5.6L90.6,241c0.4-2.7,2.9-4.7,5.6-4.3 l293.4,37.7c2.7,0.4,4.7,2.9,4.3,5.6L353,598.6C352.6,601.3,350.1,603.3,347.4,602.9z" class="st6"/><path id="XMLID_87_" d="M347.4,602.9L54,565.2c-2.7-0.4-4.7-2.9-4.3-5.6L90.6,241c0.4-2.7,2.9-4.7,5.6-4.3 l293.4,37.7c2.7,0.4,4.7,2.9,4.3,5.6L353,598.6C352.6,601.3,350.1,603.3,347.4,602.9z" class="st7"/></g></g><line id="XMLID_1170_" x1="242.6" x2="200.4" y1="255.5" y2="584" class="st8"/><line id="XMLID_1169_" x1="237.6" x2="195.4" y1="254.8" y2="583.4" class="st8"/><line id="XMLID_1168_" x1="232.5" x2="190.3" y1="254.2" y2="582.7" class="st8"/><line id="XMLID_1167_" x1="227.5" x2="185.2" y1="253.5" y2="582.1" class="st8"/><line id="XMLID_1166_" x1="222.4" x2="180.2" y1="252.9" y2="581.4" class="st8"/><line id="XMLID_1165_" x1="217.4" x2="175.1" y1="252.2" y2="580.8" class="st8"/><line id="XMLID_1164_" x1="212.3" x2="170.1" y1="251.6" y2="580.1" class="st8"/><line id="XMLID_1163_" x1="207.2" x2="165" y1="250.9" y2="579.5" class="st8"/><line id="XMLID_1162_" x1="202.2" x2="160" y1="250.3" y2="578.8" class="st8"/><line id="XMLID_1161_" x1="197.1" x2="154.9" y1="249.6" y2="578.2" class="st8"/><line id="XMLID_1160_" x1="192.1" x2="149.9" y1="249" y2="577.5" class="st8"/><line id="XMLID_1159_" x1="187" x2="144.8" y1="248.3" y2="576.9" class="st8"/><line id="XMLID_1158_" x1="182" x2="139.8" y1="247.7" y2="576.2" class="st8"/><line id="XMLID_1157_" x1="176.9" x2="134.7" y1="247" y2="575.6" class="st8"/><line id="XMLID_1156_" x1="171.9" x2="129.6" y1="246.4" y2="575" class="st8"/><line id="XMLID_1155_" x1="166.8" x2="124.6" y1="245.7" y2="574.3" class="st8"/><line id="XMLID_1154_" x1="161.7" x2="119.5" y1="245.1" y2="573.7" class="st8"/><line id="XMLID_1153_" x1="156.7" x2="114.5" y1="244.4" y2="573" class="st8"/><line id="XMLID_1152_" x1="151.6" x2="109.4" y1="243.8" y2="572.4" class="st8"/><line id="XMLID_1151_" x1="146.6" x2="104.4" y1="243.1" y2="571.7" class="st8"/><line id="XMLID_1150_" x1="141.5" x2="99.3" y1="242.5" y2="571.1" class="st8"/><line id="XMLID_1149_" x1="136.5" x2="94.3" y1="241.8" y2="570.4" class="st8"/><line id="XMLID_1148_" x1="131.4" x2="89.2" y1="241.2" y2="569.8" class="st8"/><line id="XMLID_1147_" x1="126.4" x2="84.1" y1="240.5" y2="569.1" class="st8"/><line id="XMLID_1146_" x1="121.3" x2="79.1" y1="239.9" y2="568.5" class="st8"/><line id="XMLID_1145_" x1="116.2" x2="74" y1="239.2" y2="567.8" class="st8"/><line id="XMLID_1144_" x1="111.2" x2="69" y1="238.6" y2="567.2" class="st8"/><line id="XMLID_1143_" x1="106.1" x2="63.9" y1="237.9" y2="566.5" class="st8"/><line id="XMLID_1142_" x1="101.1" x2="58.9" y1="237.3" y2="565.9" class="st8"/><line id="XMLID_1141_" x1="96" x2="53.8" y1="236.6" y2="565.2" class="st8"/><line id="XMLID_1140_" x1="247.7" x2="205.5" y1="256.1" y2="584.7" class="st8"/><line id="XMLID_1139_" x1="252.7" x2="210.5" y1="256.7" y2="585.3" class="st8"/><line id="XMLID_1138_" x1="257.8" x2="215.6" y1="257.4" y2="586" class="st8"/><line id="XMLID_1137_" x1="262.9" x2="220.6" y1="258" y2="586.6" class="st8"/><line id="XMLID_1136_" x1="267.9" x2="225.7" y1="258.7" y2="587.3" class="st8"/><line id="XMLID_1135_" x1="273" x2="230.7" y1="259.3" y2="587.9" class="st8"/><line id="XMLID_1134_" x1="278" x2="235.8" y1="260" y2="588.6" class="st8"/><line id="XMLID_1133_" x1="283.1" x2="240.9" y1="260.6" y2="589.2" class="st8"/><line id="XMLID_1132_" x1="288.1" x2="245.9" y1="261.3" y2="589.9" class="st8"/><line id="XMLID_1131_" x1="293.2" x2="251" y1="261.9" y2="590.5" class="st8"/><line id="XMLID_1130_" x1="298.2" x2="256" y1="262.6" y2="591.2" class="st8"/><line id="XMLID_1129_" x1="303.3" x2="261.1" y1="263.2" y2="591.8" class="st8"/><line id="XMLID_1128_" x1="308.4" x2="266.1" y1="263.9" y2="592.5" class="st8"/><line id="XMLID_1127_" x1="313.4" x2="271.2" y1="264.5" y2="593.1" class="st8"/><line id="XMLID_1126_" x1="318.5" x2="276.2" y1="265.2" y2="593.8" class="st8"/><line id="XMLID_1125_" x1="323.5" x2="281.3" y1="265.8" y2="594.4" class="st8"/><line id="XMLID_1124_" x1="328.6" x2="286.4" y1="266.5" y2="595.1" class="st8"/><line id="XMLID_1123_" x1="333.6" x2="291.4" y1="267.1" y2="595.7" class="st8"/><line id="XMLID_1122_" x1="338.7" x2="296.5" y1="267.8" y2="596.4" class="st8"/><line id="XMLID_1121_" x1="343.7" x2="301.5" y1="268.4" y2="597" class="st8"/><line id="XMLID_1120_" x1="348.8" x2="306.6" y1="269.1" y2="597.7" class="st8"/><line id="XMLID_1119_" x1="353.8" x2="311.6" y1="269.7" y2="598.3" class="st8"/><line id="XMLID_1118_" x1="358.9" x2="316.7" y1="270.4" y2="599" class="st8"/><line id="XMLID_1117_" x1="364" x2="321.7" y1="271" y2="599.6" class="st8"/><line id="XMLID_1116_" x1="369" x2="326.8" y1="271.7" y2="600.3" class="st8"/><line id="XMLID_1115_" x1="374.1" x2="331.9" y1="272.3" y2="600.9" class="st8"/><line id="XMLID_1114_" x1="379.1" x2="336.9" y1="273" y2="601.6" class="st8"/><line id="XMLID_1113_" x1="384.2" x2="342" y1="273.6" y2="602.2" class="st8"/><line id="XMLID_1112_" x1="389.2" x2="347" y1="274.3" y2="602.9" class="st8"/><line id="XMLID_1111_" x1="394.3" x2="352.1" y1="274.9" y2="603.5" class="st8"/><line id="XMLID_1110_" x1="373.9" x2="70.1" y1="439.6" y2="400.5" class="st8"/><line id="XMLID_1109_" x1="373.3" x2="69.4" y1="444.6" y2="405.6" class="st8"/><line id="XMLID_1108_" x1="372.6" x2="68.8" y1="449.7" y2="410.7" class="st8"/><line id="XMLID_1107_" x1="372" x2="68.1" y1="454.7" y2="415.7" class="st8"/><line id="XMLID_1106_" x1="371.3" x2="67.5" y1="459.8" y2="420.8" class="st8"/><line id="XMLID_1105_" x1="370.7" x2="66.8" y1="464.9" y2="425.8" class="st8"/><line id="XMLID_1104_" x1="370" x2="66.2" y1="469.9" y2="430.9" class="st8"/><line id="XMLID_1103_" x1="369.4" x2="65.5" y1="475" y2="435.9" class="st8"/><line id="XMLID_1102_" x1="368.7" x2="64.9" y1="480" y2="441" class="st8"/><line id="XMLID_1101_" x1="368.1" x2="64.2" y1="485.1" y2="446" class="st8"/><line id="XMLID_1100_" x1="367.4" x2="63.6" y1="490.1" y2="451.1" class="st8"/><line id="XMLID_1099_" x1="366.8" x2="62.9" y1="495.2" y2="456.2" class="st8"/><line id="XMLID_1098_" x1="366.1" x2="62.3" y1="500.2" y2="461.2" class="st8"/><line id="XMLID_1097_" x1="365.5" x2="61.6" y1="505.3" y2="466.3" class="st8"/><line id="XMLID_1096_" x1="364.8" x2="61" y1="510.4" y2="471.3" class="st8"/><line id="XMLID_1095_" x1="364.2" x2="60.3" y1="515.4" y2="476.4" class="st8"/><line id="XMLID_1094_" x1="363.5" x2="59.7" y1="520.5" y2="481.4" class="st8"/><line id="XMLID_1093_" x1="362.9" x2="59" y1="525.5" y2="486.5" class="st8"/><line id="XMLID_1092_" x1="362.2" x2="58.4" y1="530.6" y2="491.5" class="st8"/><line id="XMLID_1091_" x1="361.6" x2="57.7" y1="535.6" y2="496.6" class="st8"/><line id="XMLID_1090_" x1="360.9" x2="57.1" y1="540.7" y2="501.7" class="st8"/><line id="XMLID_1089_" x1="360.3" x2="56.4" y1="545.7" y2="506.7" class="st8"/><line id="XMLID_1088_" x1="359.6" x2="55.8" y1="550.8" y2="511.8" class="st8"/><line id="XMLID_1087_" x1="359" x2="55.1" y1="555.9" y2="516.8" class="st8"/><line id="XMLID_1086_" x1="358.3" x2="54.5" y1="560.9" y2="521.9" class="st8"/><line id="XMLID_1085_" x1="357.7" x2="53.8" y1="566" y2="526.9" class="st8"/><line id="XMLID_1084_" x1="357" x2="53.2" y1="571" y2="532" class="st8"/><line id="XMLID_1083_" x1="356.4" x2="52.5" y1="576.1" y2="537" class="st8"/><line id="XMLID_1082_" x1="355.7" x2="51.9" y1="581.1" y2="542.1" class="st8"/><line id="XMLID_1081_" x1="355.1" x2="51.3" y1="586.2" y2="547.2" class="st8"/><line id="XMLID_1080_" x1="354.4" x2="50.6" y1="591.2" y2="552.2" class="st8"/><line id="XMLID_1079_" x1="353.8" x2="50" y1="596.3" y2="557.3" class="st8"/><line id="XMLID_1078_" x1="353.1" x2="49.3" y1="601.4" y2="562.3" class="st8"/><line id="XMLID_1077_" x1="374.6" x2="70.7" y1="434.5" y2="395.5" class="st8"/><path id="XMLID_x5F_68_x5F_" d="M375.2,429.5l-303.8-39" class="st9"/><text id="XMLID_1075_"><textPath startOffset=".427%" xlink:href="#XMLID_x5F_68_x5F_"/></text><line id="XMLID_1074_" x1="375.9" x2="72" y1="424.4" y2="385.4" class="st8"/><line id="XMLID_1073_" x1="376.5" x2="72.7" y1="419.4" y2="380.3" class="st8"/><line id="XMLID_1072_" x1="377.2" x2="73.3" y1="414.3" y2="375.3" class="st8"/><line id="XMLID_1071_" x1="377.8" x2="74" y1="409.2" y2="370.2" class="st8"/><line id="XMLID_1070_" x1="378.5" x2="74.6" y1="404.2" y2="365.2" class="st8"/><line id="XMLID_1069_" x1="379.1" x2="75.3" y1="399.1" y2="360.1" class="st8"/><line id="XMLID_1068_" x1="379.8" x2="75.9" y1="394.1" y2="355.1" class="st8"/><line id="XMLID_1067_" x1="380.4" x2="76.6" y1="389" y2="350" class="st8"/><line id="XMLID_1066_" x1="381.1" x2="77.2" y1="384" y2="344.9" class="st8"/><line id="XMLID_1065_" x1="381.7" x2="77.9" y1="378.9" y2="339.9" class="st8"/><line id="XMLID_1064_" x1="382.4" x2="78.5" y1="373.9" y2="334.8" class="st8"/><line id="XMLID_1063_" x1="383" x2="79.2" y1="368.8" y2="329.8" class="st8"/><line id="XMLID_1062_" x1="383.6" x2="79.8" y1="363.8" y2="324.7" class="st8"/><line id="XMLID_1061_" x1="384.3" x2="80.5" y1="358.7" y2="319.7" class="st8"/><line id="XMLID_1060_" x1="384.9" x2="81.1" y1="353.6" y2="314.6" class="st8"/><line id="XMLID_1059_" x1="385.6" x2="81.8" y1="348.6" y2="309.6" class="st8"/><line id="XMLID_1058_" x1="386.2" x2="82.4" y1="343.5" y2="304.5" class="st8"/><line id="XMLID_1057_" x1="386.9" x2="83.1" y1="338.5" y2="299.4" class="st8"/><line id="XMLID_1056_" x1="387.5" x2="83.7" y1="333.4" y2="294.4" class="st8"/><line id="XMLID_1055_" x1="388.2" x2="84.4" y1="328.4" y2="289.3" class="st8"/><line id="XMLID_1054_" x1="388.8" x2="85" y1="323.3" y2="284.3" class="st8"/><line id="XMLID_1053_" x1="389.5" x2="85.7" y1="318.3" y2="279.2" class="st8"/><line id="XMLID_1052_" x1="390.1" x2="86.3" y1="313.2" y2="274.2" class="st8"/><line id="XMLID_1051_" x1="390.8" x2="87" y1="308.1" y2="269.1" class="st8"/><line id="XMLID_1050_" x1="391.4" x2="87.6" y1="303.1" y2="264.1" class="st8"/><line id="XMLID_1049_" x1="392.1" x2="88.3" y1="298" y2="259" class="st8"/><line id="XMLID_1048_" x1="392.7" x2="88.9" y1="293" y2="253.9" class="st8"/><line id="XMLID_1047_" x1="393.4" x2="89.6" y1="287.9" y2="248.9" class="st8"/><line id="XMLID_1046_" x1="394" x2="90.2" y1="282.9" y2="243.8" class="st8"/><line id="XMLID_1045_" x1="394.7" x2="90.9" y1="277.8" y2="238.8" class="st8"/></g><g id="XMLID_911_"><g id="XMLID_1039_"><image style="overflow:visible;opacity:.12" id="XMLID_84_" width="398" height="415" transform="matrix(1 0 0 1 31.4129 218.4129)" xlink:href="637A677FB6AD4B4E.png"/><g id="XMLID_77_"><path id="XMLID_83_" d="M419.1,541.4L135.7,626c-2.6,0.8-5.4-0.7-6.2-3.4L37.6,314.8c-0.8-2.6,0.7-5.4,3.4-6.2 L324.4,224c2.6-0.8,5.4,0.7,6.2,3.4l91.9,307.9C423.3,537.9,421.8,540.6,419.1,541.4z" class="st6"/><path id="XMLID_82_" d="M419.1,541.4L135.7,626c-2.6,0.8-5.4-0.7-6.2-3.4L37.6,314.8c-0.8-2.6,0.7-5.4,3.4-6.2 L324.4,224c2.6-0.8,5.4,0.7,6.2,3.4l91.9,307.9C423.3,537.9,421.8,540.6,419.1,541.4z" class="st7"/></g></g><line id="XMLID_1038_" x1="182.4" x2="277.1" y1="266.3" y2="583.8" class="st8"/><line id="XMLID_1037_" x1="177.5" x2="272.3" y1="267.8" y2="585.3" class="st8"/><line id="XMLID_1036_" x1="172.6" x2="267.4" y1="269.3" y2="586.7" class="st8"/><line id="XMLID_1035_" x1="167.8" x2="262.5" y1="270.7" y2="588.2" class="st8"/><line id="XMLID_1034_" x1="162.9" x2="257.6" y1="272.2" y2="589.6" class="st8"/><line id="XMLID_1033_" x1="158" x2="252.7" y1="273.6" y2="591.1" class="st8"/><line id="XMLID_1032_" x1="153.1" x2="247.8" y1="275.1" y2="592.5" class="st8"/><line id="XMLID_1031_" x1="148.2" x2="243" y1="276.5" y2="594" class="st8"/><line id="XMLID_1030_" x1="143.3" x2="238.1" y1="278" y2="595.5" class="st8"/><line id="XMLID_1029_" x1="138.5" x2="233.2" y1="279.5" y2="596.9" class="st8"/><line id="XMLID_1028_" x1="133.6" x2="228.3" y1="280.9" y2="598.4" class="st8"/><line id="XMLID_1027_" x1="128.7" x2="223.4" y1="282.4" y2="599.8" class="st8"/><line id="XMLID_1026_" x1="123.8" x2="218.5" y1="283.8" y2="601.3" class="st8"/><line id="XMLID_1025_" x1="118.9" x2="213.7" y1="285.3" y2="602.7" class="st8"/><line id="XMLID_1024_" x1="114" x2="208.8" y1="286.7" y2="604.2" class="st8"/><line id="XMLID_1023_" x1="109.2" x2="203.9" y1="288.2" y2="605.7" class="st8"/><line id="XMLID_1022_" x1="104.3" x2="199" y1="289.7" y2="607.1" class="st8"/><line id="XMLID_1021_" x1="99.4" x2="194.1" y1="291.1" y2="608.6" class="st8"/><line id="XMLID_1020_" x1="94.5" x2="189.2" y1="292.6" y2="610" class="st8"/><line id="XMLID_1019_" x1="89.6" x2="184.4" y1="294" y2="611.5" class="st8"/><line id="XMLID_1018_" x1="84.7" x2="179.5" y1="295.5" y2="612.9" class="st8"/><line id="XMLID_1017_" x1="79.8" x2="174.6" y1="296.9" y2="614.4" class="st8"/><line id="XMLID_1016_" x1="75" x2="169.7" y1="298.4" y2="615.9" class="st8"/><line id="XMLID_1015_" x1="70.1" x2="164.8" y1="299.9" y2="617.3" class="st8"/><line id="XMLID_1014_" x1="65.2" x2="159.9" y1="301.3" y2="618.8" class="st8"/><line id="XMLID_1013_" x1="60.3" x2="155" y1="302.8" y2="620.2" class="st8"/><line id="XMLID_1012_" x1="55.4" x2="150.2" y1="304.2" y2="621.7" class="st8"/><line id="XMLID_1011_" x1="50.5" x2="145.3" y1="305.7" y2="623.1" class="st8"/><line id="XMLID_1010_" x1="45.7" x2="140.4" y1="307.1" y2="624.6" class="st8"/><line id="XMLID_1009_" x1="40.8" x2="135.5" y1="308.6" y2="626.1" class="st8"/><line id="XMLID_1008_" x1="187.3" x2="282" y1="264.9" y2="582.3" class="st8"/><line id="XMLID_1007_" x1="192.2" x2="286.9" y1="263.4" y2="580.9" class="st8"/><line id="XMLID_1006_" x1="197.1" x2="291.8" y1="262" y2="579.4" class="st8"/><line id="XMLID_1005_" x1="201.9" x2="296.7" y1="260.5" y2="578" class="st8"/><line id="XMLID_1004_" x1="206.8" x2="301.6" y1="259" y2="576.5" class="st8"/><line id="XMLID_1003_" x1="211.7" x2="306.5" y1="257.6" y2="575.1" class="st8"/><line id="XMLID_1002_" x1="216.6" x2="311.3" y1="256.1" y2="573.6" class="st8"/><line id="XMLID_1001_" x1="221.5" x2="316.2" y1="254.7" y2="572.1" class="st8"/><line id="XMLID_1000_" x1="226.4" x2="321.1" y1="253.2" y2="570.7" class="st8"/><line id="XMLID_999_" x1="231.3" x2="326" y1="251.8" y2="569.2" class="st8"/><line id="XMLID_998_" x1="236.1" x2="330.9" y1="250.3" y2="567.8" class="st8"/><line id="XMLID_997_" x1="241" x2="335.8" y1="248.8" y2="566.3" class="st8"/><line id="XMLID_996_" x1="245.9" x2="340.6" y1="247.4" y2="564.8" class="st8"/><line id="XMLID_995_" x1="250.8" x2="345.5" y1="245.9" y2="563.4" class="st8"/><line id="XMLID_994_" x1="255.7" x2="350.4" y1="244.5" y2="561.9" class="st8"/><line id="XMLID_993_" x1="260.6" x2="355.3" y1="243" y2="560.5" class="st8"/><line id="XMLID_992_" x1="265.4" x2="360.2" y1="241.6" y2="559" class="st8"/><line id="XMLID_991_" x1="270.3" x2="365.1" y1="240.1" y2="557.6" class="st8"/><line id="XMLID_990_" x1="275.2" x2="369.9" y1="238.6" y2="556.1" class="st8"/><line id="XMLID_989_" x1="280.1" x2="374.8" y1="237.2" y2="554.6" class="st8"/><line id="XMLID_988_" x1="285" x2="379.7" y1="235.7" y2="553.2" class="st8"/><line id="XMLID_987_" x1="289.9" x2="384.6" y1="234.3" y2="551.7" class="st8"/><line id="XMLID_986_" x1="294.7" x2="389.5" y1="232.8" y2="550.3" class="st8"/><line id="XMLID_985_" x1="299.6" x2="394.4" y1="231.4" y2="548.8" class="st8"/><line id="XMLID_984_" x1="304.5" x2="399.2" y1="229.9" y2="547.4" class="st8"/><line id="XMLID_983_" x1="309.4" x2="404.1" y1="228.4" y2="545.9" class="st8"/><line id="XMLID_982_" x1="314.3" x2="409" y1="227" y2="544.4" class="st8"/><line id="XMLID_981_" x1="319.2" x2="413.9" y1="225.5" y2="543" class="st8"/><line id="XMLID_980_" x1="324" x2="418.8" y1="224.1" y2="541.5" class="st8"/><line id="XMLID_979_" x1="328.9" x2="423.7" y1="222.6" y2="540.1" class="st8"/><line id="XMLID_978_" x1="377.1" x2="83.6" y1="381.4" y2="469" class="st8"/><line id="XMLID_977_" x1="378.6" x2="85" y1="386.3" y2="473.8" class="st8"/><line id="XMLID_976_" x1="380" x2="86.5" y1="391.1" y2="478.7" class="st8"/><line id="XMLID_975_" x1="381.5" x2="87.9" y1="396" y2="483.6" class="st8"/><line id="XMLID_974_" x1="382.9" x2="89.4" y1="400.9" y2="488.5" class="st8"/><line id="XMLID_973_" x1="384.4" x2="90.9" y1="405.8" y2="493.4" class="st8"/><line id="XMLID_972_" x1="385.8" x2="92.3" y1="410.7" y2="498.3" class="st8"/><line id="XMLID_971_" x1="387.3" x2="93.8" y1="415.6" y2="503.1" class="st8"/><line id="XMLID_970_" x1="388.8" x2="95.2" y1="420.4" y2="508" class="st8"/><line id="XMLID_969_" x1="390.2" x2="96.7" y1="425.3" y2="512.9" class="st8"/><line id="XMLID_968_" x1="391.7" x2="98.2" y1="430.2" y2="517.8" class="st8"/><line id="XMLID_967_" x1="393.1" x2="99.6" y1="435.1" y2="522.7" class="st8"/><line id="XMLID_966_" x1="394.6" x2="101.1" y1="440" y2="527.6" class="st8"/><line id="XMLID_965_" x1="396.1" x2="102.5" y1="444.9" y2="532.5" class="st8"/><line id="XMLID_964_" x1="397.5" x2="104" y1="449.7" y2="537.3" class="st8"/><line id="XMLID_963_" x1="399" x2="105.4" y1="454.6" y2="542.2" class="st8"/><line id="XMLID_962_" x1="400.4" x2="106.9" y1="459.5" y2="547.1" class="st8"/><line id="XMLID_961_" x1="401.9" x2="108.4" y1="464.4" y2="552" class="st8"/><line id="XMLID_960_" x1="403.3" x2="109.8" y1="469.3" y2="556.9" class="st8"/><line id="XMLID_959_" x1="404.8" x2="111.3" y1="474.2" y2="561.8" class="st8"/><line id="XMLID_958_" x1="406.3" x2="112.7" y1="479" y2="566.6" class="st8"/><line id="XMLID_957_" x1="407.7" x2="114.2" y1="483.9" y2="571.5" class="st8"/><line id="XMLID_956_" x1="409.2" x2="115.6" y1="488.8" y2="576.4" class="st8"/><line id="XMLID_955_" x1="410.6" x2="117.1" y1="493.7" y2="581.3" class="st8"/><line id="XMLID_954_" x1="412.1" x2="118.6" y1="498.6" y2="586.2" class="st8"/><line id="XMLID_953_" x1="413.5" x2="120" y1="503.5" y2="591.1" class="st8"/><line id="XMLID_952_" x1="415" x2="121.5" y1="508.4" y2="595.9" class="st8"/><line id="XMLID_951_" x1="416.5" x2="122.9" y1="513.2" y2="600.8" class="st8"/><line id="XMLID_950_" x1="417.9" x2="124.4" y1="518.1" y2="605.7" class="st8"/><line id="XMLID_949_" x1="419.4" x2="125.8" y1="523" y2="610.6" class="st8"/><line id="XMLID_948_" x1="420.8" x2="127.3" y1="527.9" y2="615.5" class="st8"/><line id="XMLID_947_" x1="422.3" x2="128.8" y1="532.8" y2="620.4" class="st8"/><line id="XMLID_946_" x1="423.7" x2="130.2" y1="537.7" y2="625.2" class="st8"/><line id="XMLID_945_" x1="375.6" x2="82.1" y1="376.5" y2="464.1" class="st8"/><path id="XMLID_x5F_69_x5F_" d="M374.2,371.6L80.7,459.2" class="st9"/><text id="XMLID_943_"><textPath startOffset=".427%" xlink:href="#XMLID_x5F_69_x5F_"/></text><line id="XMLID_942_" x1="372.7" x2="79.2" y1="366.7" y2="454.3" class="st8"/><line id="XMLID_941_" x1="371.3" x2="77.7" y1="361.8" y2="449.4" class="st8"/><line id="XMLID_940_" x1="369.8" x2="76.3" y1="356.9" y2="444.5" class="st8"/><line id="XMLID_939_" x1="368.4" x2="74.8" y1="352.1" y2="439.7" class="st8"/><line id="XMLID_938_" x1="366.9" x2="73.4" y1="347.2" y2="434.8" class="st8"/><line id="XMLID_937_" x1="365.4" x2="71.9" y1="342.3" y2="429.9" class="st8"/><line id="XMLID_936_" x1="364" x2="70.5" y1="337.4" y2="425" class="st8"/><line id="XMLID_935_" x1="362.5" x2="69" y1="332.5" y2="420.1" class="st8"/><line id="XMLID_934_" x1="361.1" x2="67.5" y1="327.6" y2="415.2" class="st8"/><line id="XMLID_933_" x1="359.6" x2="66.1" y1="322.8" y2="410.4" class="st8"/><line id="XMLID_932_" x1="358.2" x2="64.6" y1="317.9" y2="405.5" class="st8"/><line id="XMLID_931_" x1="356.7" x2="63.2" y1="313" y2="400.6" class="st8"/><line id="XMLID_930_" x1="355.2" x2="61.7" y1="308.1" y2="395.7" class="st8"/><line id="XMLID_929_" x1="353.8" x2="60.3" y1="303.2" y2="390.8" class="st8"/><line id="XMLID_928_" x1="352.3" x2="58.8" y1="298.3" y2="385.9" class="st8"/><line id="XMLID_927_" x1="350.9" x2="57.3" y1="293.5" y2="381" class="st8"/><line id="XMLID_926_" x1="349.4" x2="55.9" y1="288.6" y2="376.2" class="st8"/><line id="XMLID_925_" x1="348" x2="54.4" y1="283.7" y2="371.3" class="st8"/><line id="XMLID_924_" x1="346.5" x2="53" y1="278.8" y2="366.4" class="st8"/><line id="XMLID_923_" x1="345" x2="51.5" y1="273.9" y2="361.5" class="st8"/><line id="XMLID_922_" x1="343.6" x2="50.1" y1="269" y2="356.6" class="st8"/><line id="XMLID_921_" x1="342.1" x2="48.6" y1="264.2" y2="351.7" class="st8"/><line id="XMLID_920_" x1="340.7" x2="47.1" y1="259.3" y2="346.9" class="st8"/><line id="XMLID_919_" x1="339.2" x2="45.7" y1="254.4" y2="342" class="st8"/><line id="XMLID_918_" x1="337.8" x2="44.2" y1="249.5" y2="337.1" class="st8"/><line id="XMLID_917_" x1="336.3" x2="42.8" y1="244.6" y2="332.2" class="st8"/><line id="XMLID_916_" x1="334.8" x2="41.3" y1="239.7" y2="327.3" class="st8"/><line id="XMLID_915_" x1="333.4" x2="39.9" y1="234.8" y2="322.4" class="st8"/><line id="XMLID_914_" x1="331.9" x2="38.4" y1="230" y2="317.6" class="st8"/><line id="XMLID_913_" x1="330.5" x2="36.9" y1="225.1" y2="312.7" class="st8"/><line id="XMLID_912_" x1="373.8" x2="80.2" y1="371.8" y2="459.4" class="st8"/></g><g id="XMLID_900_"><path id="XMLID_908_" d="M169.7,457.7l3.2-1.5L175,411l9.7-2.9l26.5,36.7l3.5-0.5l1.7,5.7l-16,4.8l-1.7-5.7l3.1-1.6 l-4-5.9l-15.3,4.6l-0.1,7.1l3.4-0.4l1.7,5.7l-16,4.8L169.7,457.7z M182.6,438.6l10.8-3.2l-10.3-15l-0.2,0.1L182.6,438.6z" class="st10"/><path id="XMLID_905_" d="M227.8,395.2c5.4-1.6,10.1-1.5,14,0.3c3.9,1.8,6.6,5,7.9,9.5c1.3,4.5,0.9,8.6-1.4,12.3 c-2.3,3.7-6.1,6.3-11.5,7.9l-8,2.4l3.1,10.5l5.3-0.5l1.7,5.7l-19.5,5.8l-1.7-5.7l4.7-2.5l-10.1-33.8l-5.3,0.5l-1.7-5.7l5-1.5 L227.8,395.2z M226.6,420.3l8-2.4c2.6-0.8,4.4-2.1,5.3-3.9c0.9-1.8,1-3.9,0.4-6.1c-0.7-2.3-1.9-3.9-3.7-5c-1.8-1.1-4-1.2-6.6-0.4 l-8,2.4L226.6,420.3z" class="st10"/><path id="XMLID_903_" d="M249.9,394.8l-1.7-5.7l19.5-5.8l1.7,5.7l-4.8,2.5l10.1,33.8l5.3-0.5l1.7,5.7l-19.5,5.8 l-1.7-5.7l4.8-2.5l-10.1-33.8L249.9,394.8z" class="st10"/></g></g><g id="Layer_3"><g id="XMLID_453_" class="st11"><rect id="XMLID_452_" width="147" height="25.6" x="973.1" y="541.6" class="st12" transform="matrix(-0.7091 -0.7051 0.7051 -0.7091 1397.9482 1685.5398)"/><path id="XMLID_451_" d="M982.1,487l21.4,6.4l-18,18.2l-6.6-21.4C978.3,488.3,980.2,486.4,982.1,487z" class="st12"/><path id="XMLID_450_" d="M1098.3,623.7l-8.5-8.5l18-18.2l8.5,8.5c1,1,1,2.7,0,3.6l-14.4,14.5 C1101,624.8,1099.3,624.7,1098.3,623.7z" class="st12"/><path id="XMLID_449_" d="M1091.8,595.3l-86.5-85.9c-0.5-0.6-0.5-1.3-0.1-1.8l0.1-0.1c0.6-0.5,1.3-0.5,1.8-0.1 l86.5,85.9c0.5,0.6,0.5,1.3,0.1,1.8l-0.1,0.1C1093,595.8,1092.3,595.8,1091.8,595.3z" class="st12"/><path id="XMLID_448_" d="M1086.2,601L999.7,515c-0.5-0.6-0.5-1.3-0.1-1.8l0.1-0.1c0.6-0.5,1.3-0.5,1.8-0.1l86.5,85.9 c0.5,0.6,0.5,1.3,0.1,1.8l-0.1,0.1C1087.5,601.4,1086.6,601.4,1086.2,601z" class="st12"/></g><g id="XMLID_454_" class="st13"><g id="XMLID_455_"><g id="XMLID_456_"><g id="XMLID_462_"><path id="XMLID_468_" d="M1157.4,400.9l-3.9,3.9c-4.2,4.2-11.2,4.2-15.4,0l-23.1-23.1c-4.2-4.2-4.2-11.2,0-15.4 l3.9-3.9c4.2-4.2,11.2-4.2,15.4,0l23.1,23.1C1161.8,389.7,1161.8,396.7,1157.4,400.9z" class="st14"/><path id="XMLID_467_" d="M1141.2,282.6c29.2,29.2,29.2,76.7,0,105.9c-29.2,29.2-76.7,29.2-105.9,0 c-29.2-29.2-29.2-76.7,0-105.9S1111.8,253.2,1141.2,282.6" class="st14"/><path id="XMLID_464_" d="M1126.6,297c21.2,21.3,21.2,55.8,0,77.1c-21.3,21.3-55.8,21.3-77.1,0 c-21.2-21.2-21.2-55.8,0-77.1C1070.7,275.6,1105.4,275.7,1126.6,297" class="st1"/></g></g></g></g></g></svg>