<svg xmlns="http://www.w3.org/2000/svg" xmlns:xlink="http://www.w3.org/1999/xlink" id="Layer_1" x="0" y="0" version="1.1" viewBox="0 0 400 400" xml:space="preserve" style="enable-background:new 0 0 400 400"><style type="text/css">.st0,.st1{fill:#fff}.st1{stroke:transparent;stroke-width:5.9702}.st2{fill:#f99d1c}.st3{fill:#dc4e3e}.st4{fill:#694d9f}.st5{fill:#30b4c5}.st6{fill:#d02e27}.st7{fill:#58152a}.st8{fill:#263c82}</style><circle id="XMLID_20_" cx="200" cy="200" r="200" class="st0"/><g id="XMLID_1_"><title>WebPlatform.org Logo</title><path id="outline_1_" d="M149.5,119.7v88.8l29.5-29.7c11.6-11.5,30.4-11.5,42,0.1l29.4,29.6v-88.8 c0-16.4,13.3-29.7,29.7-29.7s29.7,13.3,29.7,29.7v160.4c0,16.4-13.2,29.8-29.7,29.8c-7.9,0-15.5-3.1-21.1-8.7L200,242l-59.2,59.3 c-11.6,11.6-30.4,11.6-42.1,0c-5.6-5.6-8.7-13.2-8.7-21.1V119.7c0-16.4,13.3-29.7,29.7-29.7S149.5,103.3,149.5,119.7L149.5,119.7z" class="st1"/><path id="strut-1_1_" d="M149.5,119.7v160.4c0,16.4-13.3,29.7-29.7,29.7S90,296.6,90,280.1V119.7 c0-16.4,13.3-29.7,29.7-29.7S149.5,103.3,149.5,119.7L149.5,119.7z M119.8,107.1c-7,0-12.6,5.6-12.6,12.6c0,7,5.6,12.6,12.6,12.6 c7,0,12.6-5.6,12.6-12.6C132.4,112.8,126.7,107.1,119.8,107.1z M119.8,267.5c-7,0-12.6,5.6-12.6,12.6s5.6,12.6,12.6,12.6 c7,0,12.6-5.6,12.6-12.6S126.7,267.5,119.8,267.5z" class="st2"/><path id="strut-2_1_" d="M98.7,259.1l80.3-80.3c11.6-11.6,30.4-11.6,42.1,0c11.6,11.6,11.6,30.4,0,42.1l-80.3,80.4 c-11.6,11.6-30.5,11.6-42.1,0C87.1,289.6,87.1,270.7,98.7,259.1z M119.8,267.5c-7,0-12.6,5.6-12.6,12.6s5.6,12.6,12.6,12.6 c7,0,12.6-5.6,12.6-12.6S126.7,267.5,119.8,267.5z M200,187.3c-7,0-12.6,5.6-12.6,12.6s5.6,12.6,12.6,12.6c7,0,12.6-5.6,12.6-12.6 S206.9,187.3,200,187.3z" class="st3"/><path id="strut-3_1_" d="M221,178.9l80.3,80.3c11.6,11.6,11.6,30.5,0,42.1s-30.5,11.6-42.1,0L179,221.1 c-11.6-11.6-11.7-30.5,0-42.1C190.5,167.3,209.4,167.3,221,178.9z M200,187.3c-7,0-12.6,5.6-12.6,12.6s5.6,12.6,12.6,12.6 c7,0,12.6-5.6,12.6-12.6S206.9,187.3,200,187.3z M280.2,267.5c-7,0-12.6,5.6-12.6,12.6s5.6,12.6,12.6,12.6c7,0,12.6-5.6,12.6-12.6 S287.1,267.5,280.2,267.5z" class="st4"/><path id="strut-4_1_" d="M250.4,280.1V119.7c0-16.4,13.3-29.7,29.7-29.7s29.7,13.3,29.7,29.7v160.4 c0,16.4-13.3,29.7-29.7,29.7S250.4,296.6,250.4,280.1L250.4,280.1z M280.2,107.1c-7,0-12.6,5.6-12.6,12.6c0,7,5.6,12.6,12.6,12.6 c7,0,12.6-5.6,12.6-12.6C292.8,112.8,287.1,107.1,280.2,107.1z M280.2,267.5c-7,0-12.6,5.6-12.6,12.6s5.6,12.6,12.6,12.6 c7,0,12.6-5.6,12.6-12.6S287.1,267.5,280.2,267.5z" class="st5"/><path id="join-1_1_" d="M149.5,208.5v71.6c0,16.4-13.3,29.7-29.7,29.7S90,296.6,90,280.2c0-7.9,3.1-15.5,8.7-21 L149.5,208.5z M119.8,267.5c-7,0-12.6,5.6-12.6,12.6s5.6,12.6,12.6,12.6c7,0,12.6-5.6,12.6-12.6S126.7,267.5,119.8,267.5z" class="st6"/><path id="join-2_1_" d="M200,242l-21-21c-11.6-11.6-11.6-30.5,0.1-42.1c11.6-11.6,30.5-11.6,42.1,0.1 c11.6,11.6,11.6,30.4,0,42L200,242z M200,187.3c-7,0-12.6,5.6-12.6,12.6s5.6,12.6,12.6,12.6c7,0,12.6-5.6,12.6-12.6 S206.9,187.3,200,187.3z" class="st7"/><path id="join-3_1_" d="M250.4,208.5v71.6c0,16.4,13.4,29.7,29.8,29.7c16.4,0,29.7-13.4,29.7-29.8 c0-7.8-3.1-15.3-8.6-20.9L250.4,208.5z M280.2,267.5c7,0,12.6,5.6,12.6,12.6s-5.6,12.6-12.6,12.6c-7,0-12.6-5.6-12.6-12.6 S273.2,267.5,280.2,267.5z" class="st8"/></g></svg>